<?xml version="1.0" encoding="utf-8"?>
<svg version="1.1" xmlns:xlink="http://www.w3.org/1999/xlink" width="14px" height="14px" xmlns="http://www.w3.org/2000/svg">
  <g transform="matrix(1 0 0 1 -127 -156 )">
    <path d="M 134 156  C 137.92 156  141 159.08  141 163  C 141 166.92  137.92 170  134 170  C 130.08 170  127 166.92  127 163  C 127 159.08  130.08 156  134 156  Z " fill-rule="nonzero" fill="#ffffff" stroke="none" />
    <path d="M 134 156.5  C 137.64 156.5  140.5 159.36  140.5 163  C 140.5 166.64  137.64 169.5  134 169.5  C 130.36 169.5  127.5 166.64  127.5 163  C 127.5 159.36  130.36 156.5  134 156.5  Z " stroke-width="1" stroke="#797979" fill="none" />
  </g>
</svg>