<?xml version="1.0" encoding="utf-8"?>
<svg version="1.1" xmlns:xlink="http://www.w3.org/1999/xlink" width="276px" height="276px" xmlns="http://www.w3.org/2000/svg">
  <defs>
    <filter x="620px" y="239px" width="276px" height="276px" filterUnits="userSpaceOnUse" id="filter116">
      <feOffset dx="5" dy="5" in="SourceAlpha" result="shadowOffsetInner" />
      <feGaussianBlur stdDeviation="2.5" in="shadowOffsetInner" result="shadowGaussian" />
      <feComposite in2="shadowGaussian" operator="atop" in="SourceAlpha" result="shadowComposite" />
      <feColorMatrix type="matrix" values="0 0 0 0 0  0 0 0 0 0  0 0 0 0 0  0 0 0 0.34901960784313724 0  " in="shadowComposite" />
    </filter>
    <g id="widget117">
      <path d="M 753 243  C 825.24 243  882 299.76  882 372  C 882 444.24  825.24 501  753 501  C 680.76 501  624 444.24  624 372  C 624 299.76  680.76 243  753 243  Z " fill-rule="nonzero" fill="#ffffff" stroke="none" fill-opacity="0.4" />
      <path d="M 753 241.5  C 826.08 241.5  883.5 298.92  883.5 372  C 883.5 445.08000000000004  826.08 502.5  753 502.5  C 679.92 502.5  622.5 445.08000000000004  622.5 372  C 622.5 298.92  679.92 241.5  753 241.5  Z " stroke-width="5" stroke="#ffffff" fill="none" />
    </g>
  </defs>
  <g transform="matrix(1 0 0 1 -620 -239 )">
    <use xlink:href="#widget117" filter="url(#filter116)" />
    <use xlink:href="#widget117" />
  </g>
</svg>