<?xml version="1.0" encoding="utf-8"?>
<svg version="1.1" xmlns:xlink="http://www.w3.org/1999/xlink" width="12px" height="12px" viewBox="407 457  12 12" xmlns="http://www.w3.org/2000/svg">
  <path d="M 407.5 463  A 5.5 5.5 0 0 1 413 457.5 A 5.5 5.5 0 0 1 418.5 463 A 5.5 5.5 0 0 1 413 468.5 A 5.5 5.5 0 0 1 407.5 463 Z " fill-rule="nonzero" fill="#f0f0f0" stroke="none" />
  <path d="M 407.5 463  A 5.5 5.5 0 0 1 413 457.5 A 5.5 5.5 0 0 1 418.5 463 A 5.5 5.5 0 0 1 413 468.5 A 5.5 5.5 0 0 1 407.5 463 Z " stroke-width="1" stroke="#797979" fill="none" />
  <path d="M 409.57142857142856 463  L 412.14285714285717 465.5714285714286  L 416.42857142857144 459.57142857142856  " stroke-width="2.571428571428571" stroke="#797979" fill="none" />
</svg>