<?xml version="1.0" encoding="utf-8"?>
<svg version="1.1" xmlns:xlink="http://www.w3.org/1999/xlink" width="42px" height="42px" xmlns="http://www.w3.org/2000/svg">
  <g transform="matrix(1 0 0 1 -99 -546 )">
    <path d="M 120 546  C 131.76 546  141 555.24  141 567  C 141 578.76  131.76 588  120 588  C 108.24 588  99 578.76  99 567  C 99 555.24  108.24 546  120 546  Z " fill-rule="nonzero" fill="#ffffff" stroke="none" />
    <path d="M 120 546.5  C 131.48 546.5  140.5 555.52  140.5 567  C 140.5 578.48  131.48 587.5  120 587.5  C 108.52 587.5  99.5 578.48  99.5 567  C 99.5 555.52  108.52 546.5  120 546.5  Z " stroke-width="1" stroke="#797979" fill="none" />
  </g>
</svg>