<svg t="1708843948730" class="icon" viewBox="0 0 1024 1024" version="1.1" xmlns="http://www.w3.org/2000/svg" p-id="4223" width="32" height="32"><path d="M791.272727 512l-256 0L535.272727 256C535.272727 243.153455 524.846545 232.727273 512 232.727273c-12.846545 0-23.272727 10.426182-23.272727 23.272727L488.727273 512 232.727273 512c-12.846545 0-23.272727 10.426182-23.272727 23.272727C209.454545 548.119273 219.880727 558.545455 232.727273 558.545455l256 0 0 256c0 12.846545 10.426182 23.272727 23.272727 23.272727 12.846545 0 23.272727-10.426182 23.272727-23.272727L535.272727 558.545455 791.272727 558.545455c12.846545 0 23.272727-10.426182 23.272727-23.272727C814.545455 522.426182 804.119273 512 791.272727 512zM512 69.818182c-257.070545 0-465.454545 208.384-465.454545 465.454545 0 257.070545 208.384 465.454545 465.454545 465.454545 257.070545 0 465.454545-208.384 465.454545-465.454545C977.454545 278.202182 769.070545 69.818182 512 69.818182zM512 954.181818c-231.377455 0-418.909091-187.531636-418.909091-418.909091s187.531636-418.909091 418.909091-418.909091c231.377455 0 418.909091 187.531636 418.909091 418.909091S743.377455 954.181818 512 954.181818z" fill="#8a8a8a" p-id="4224"></path></svg>