<svg t="1708845065052" class="icon" viewBox="0 0 1024 1024" version="1.1" xmlns="http://www.w3.org/2000/svg" p-id="12135" width="32" height="32"><path d="M775.68 0a128.8704 128.8704 0 0 1 128.785067 124.7232l0.068266 4.164267v766.225066a128.8704 128.8704 0 0 1-124.689066 128.8192l-4.181334 0.068267H197.137067a128.8704 128.8704 0 0 1-128.802134-124.7232L68.266667 895.112533l0.068266-126.976c0.341333-16.452267 17.493333-34.6112 33.9456-34.2528 15.701333 0.341333 32.9728 16.247467 34.2016 32l0.068267 2.2528v97.0752c0 52.053333 32.631467 89.019733 83.746133 90.8288l3.959467 0.068267h524.288c52.053333 0 86.493867-35.669333 88.183467-86.920533l0.068266-3.976534V157.559467c0-52.0192-33.109333-87.278933-84.189866-89.053867l-4.061867-0.068267H224.256c-52.002133 0-85.947733 33.928533-87.6544 85.060267l-0.0512 4.061867V238.933333c-5.717333 22.6304-17.152 33.962667-34.269867 33.962667-16.1792 0-27.170133-10.103467-32.9728-30.293333L68.334933 238.933333V128.887467A128.8704 128.8704 0 0 1 193.024 0.068267L197.188267 0H775.68zM405.794133 265.693867c74.24-49.152 174.1824-28.689067 223.232 45.653333 49.0496 74.359467 28.637867 174.455467-45.602133 223.573333 90.914133 33.877333 155.921067 119.534933 167.185067 216.0128l-0.9216 2.730667c-2.9184 8.0896-13.038933 31.317333-32.597334 31.317333-15.786667 0-27.255467-11.349333-34.389333-34.048-8.618667-107.895467-77.789867-168.584533-187.767467-168.584533-109.909333 0-179.029333 60.689067-187.6992 168.584533-4.608 22.698667-16.093867 34.048-34.440533 34.048C245.316267 784.981333 238.848 750.933333 238.933333 750.933333c11.298133-96.4608 75.9808-182.1696 166.894934-215.995733a161.2288 161.2288 0 0 1-45.602134-45.6704c-49.066667-74.359467-28.637867-174.455467 45.602134-223.573333zM156.450133 631.466667c17.271467 0 31.2832 15.274667 31.2832 34.133333 0 17.954133-12.714667 32.6656-28.842666 34.030933L156.450133 699.733333H31.2832C14.011733 699.733333 0 684.458667 0 665.6c0-17.954133 12.714667-32.6656 28.842667-34.030933L31.2832 631.466667h125.166933zM102.4 426.5472c13.4656 0 32.256 12.629333 33.9968 28.535467l0.136533 2.4064v109.021866c0 17.015467-20.002133 31.0272-34.133333 31.0272-13.4656 0-32.256-12.6976-33.9968-28.6208L68.266667 566.510933v-109.021866c0-17.015467 20.002133-30.941867 34.133333-30.941867z m392.533333-131.072c-61.269333 0-102.4 44.322133-102.4 105.591467 0 61.269333 41.130667 104.174933 102.4 104.174933s102.4-42.9056 102.4-104.174933c0-61.269333-41.130667-105.591467-102.4-105.591467zM156.450133 307.2c17.271467 0 31.2832 15.274667 31.2832 34.133333 0 17.954133-12.714667 32.6656-28.842666 34.030934L156.450133 375.466667H31.2832C14.011733 375.466667 0 360.192 0 341.333333c0-17.954133 12.714667-32.6656 28.842667-34.030933L31.2832 307.2h125.166933z" fill="#8a8a8a" p-id="12136"></path></svg>