<?xml version="1.0" encoding="utf-8"?>
<svg version="1.1" xmlns:xlink="http://www.w3.org/1999/xlink" width="35px" height="35px" xmlns="http://www.w3.org/2000/svg">
  <defs>
    <path d="M 0 0  L 1024 0  L 1024 1024  L 0 1024  Z " fill-rule="evenodd" fill="black" id="path106" />
    <clipPath id="clip107">
      <use xlink:href="#path106" />
    </clipPath>
    <filter x="-50.00%" y="-50.00%" width="200.00%" height="200.00%" filterUnits="objectBoundingBox" id="filter108">
      <feColorMatrix type="matrix" values="1 0 0 0 0  0 1 0 0 0  0 0 1 0 0  0 0 0 1 0  " in="SourceGraphic" />
    </filter>
    <filter x="-1196px" y="-68px" width="35px" height="35px" filterUnits="userSpaceOnUse" id="filter109">
      <feOffset dx="5" dy="5" in="SourceAlpha" result="shadowOffsetInner" />
      <feGaussianBlur stdDeviation="2.5" in="shadowOffsetInner" result="shadowGaussian" />
      <feComposite in2="shadowGaussian" operator="atop" in="SourceAlpha" result="shadowComposite" />
      <feColorMatrix type="matrix" values="0 0 0 0 0  0 0 0 0 0  0 0 0 0 0  0 0 0 0.34901960784313724 0  " in="shadowComposite" />
    </filter>
    <g id="widget110">
      <g transform="matrix(0.0244140625 0 0 0.0244140625 -1196 -68 )" clip-path="url(#clip107)" filter="url(#filter108)">
        <path d="M512 946.858667c-239.616 0-434.858667-195.242667-434.858667-434.858667S272.384 77.141333 512 77.141333s434.858667 195.242667 434.858667 434.858667-195.242667 434.858667-434.858667 434.858667z m0-828.757334c-217.088 0-393.898667 176.810667-393.898667 393.898667 0 217.088 176.810667 393.898667 393.898667 393.898667 217.088 0 393.898667-176.810667 393.898667-393.898667 0-217.088-176.810667-393.898667-393.898667-393.898667z" fill="#8a8a8a" p-id="6330"></path>
        <path d="M509.952 615.082667c-106.496 0-193.194667-86.698667-193.194667-193.194667s86.698667-193.194667 193.194667-193.194667c106.496 0 193.194667 86.698667 193.194667 193.194667S616.448 615.082667 509.952 615.082667z m0-345.429334c-83.968 0-152.234667 68.266667-152.234667 152.234667s68.266667 152.234667 152.234667 152.234667S662.186667 505.856 662.186667 421.888 593.92 269.653333 509.952 269.653333z" fill="#8a8a8a" p-id="6331"></path>
        <path d="M512 946.858667c-111.957333 0-219.136-43.008-300.373333-120.149334l-8.874667-8.192 3.413333-11.605333c37.546667-136.533333 162.474667-232.106667 303.786667-232.106667 143.36 0 268.288 96.938667 304.469333 234.837334l2.730667 11.605333-8.874667 8.192c-79.872 75.776-185.002667 117.418667-296.277333 117.418667zM249.173333 805.546667c72.362667 64.853333 165.205333 100.352 262.826667 100.352 96.256 0 187.733333-34.816 259.413333-98.304-34.816-114.005333-140.629333-192.512-261.461333-192.512-118.784 0-224.597333 77.824-260.778667 190.464z" fill="#8a8a8a" p-id="6332"></path>
      </g>
    </g>
  </defs>
  <g transform="matrix(1 0 0 1 1196 68 )">
    <use xlink:href="#widget110" filter="url(#filter109)" />
    <use xlink:href="#widget110" />
  </g>
</svg>