<?xml version="1.0" encoding="utf-8"?>
<svg version="1.1" xmlns:xlink="http://www.w3.org/1999/xlink" width="40px" height="40px" xmlns="http://www.w3.org/2000/svg">
  <g transform="matrix(1 0 0 1 1199 -405 )">
    <path d="M -1179 405  C -1167.8 405  -1159 413.8  -1159 425  C -1159 436.2  -1167.8 445  -1179 445  C -1190.2 445  -1199 436.2  -1199 425  C -1199 413.8  -1190.2 405  -1179 405  Z " fill-rule="nonzero" fill="#ffffff" stroke="none" />
    <path d="M -1179 405.5  C -1168.08 405.5  -1159.5 414.08  -1159.5 425  C -1159.5 435.92  -1168.08 444.5  -1179 444.5  C -1189.92 444.5  -1198.5 435.92  -1198.5 425  C -1198.5 414.08  -1189.92 405.5  -1179 405.5  Z " stroke-width="1" stroke="#797979" fill="none" />
  </g>
</svg>