<svg t="1720367536418" class="icon" viewBox="0 0 1024 1024" version="1.1" xmlns="http://www.w3.org/2000/svg" p-id="4410" width="200" height="200"><path d="M511.867961 1023.998953A512.007562 512.007562 0 0 1 312.623357 40.491199a511.995928 511.995928 0 0 1 398.489208 943.279586A508.64552 508.64552 0 0 1 511.867961 1023.998953zM324.745321 581.465834a80.979838 80.979838 0 0 0-80.886771 80.875138 40.495736 40.495736 0 0 0 40.449202 40.449202h300.443227a40.484102 40.484102 0 0 0 40.437569-40.449202 80.968205 80.968205 0 0 0-80.875138-80.875138z m255.68968-10.62126a80.456337 80.456337 0 0 1 68.020272 79.863035 41.717239 41.717239 0 0 1-0.372267 5.537481h103.315895a28.501739 28.501739 0 0 0 28.466838-28.466839 57.003478 57.003478 0 0 0-56.933677-57.003478zM645.651633 387.816877a73.208752 73.208752 0 1 0 73.220385 73.208752v-73.208752z m-211.122267-66.310167a104.002263 104.002263 0 1 0 104.002263 104.002263V321.460176z" fill="#dbdbdb" p-id="4411" data-spm-anchor-id="a313x.search_index.0.i2.2feb3a81RorUi7" class="selected"></path></svg>