<svg t="1740732771524" class="icon" viewBox="0 0 1024 1024" version="1.1" xmlns="http://www.w3.org/2000/svg" p-id="4386" width="200" height="200"><path d="M888.7 402.3h-61.9v-89.7C826.8 128.4 659.9 0 510.1 0 356.3 0 197.2 116.7 197.2 312.1v90.2h-61.9C60.7 402.3 0 461.5 0 534.3V892c0 72.8 60.7 132 135.3 132h753.4c74.6 0 135.3-59.2 135.3-132V534.3c0-72.8-60.7-132-135.3-132z m-647-90.2c0-167.5 136.5-267.5 268.4-267.5 128.8 0 272.2 110.1 272.2 268v89.7H241.7v-90.2zM979.5 892c0 48.2-40.7 87.5-90.8 87.5H135.3c-50 0-90.8-39.2-90.8-87.5V534.3c0-48.2 40.7-87.5 90.8-87.5h753.4c50 0 90.8 39.2 90.8 87.5V892z" fill="#707070" p-id="4387"></path><path d="M512 579.6c-12.3 0-22.3 10-22.3 22.3v222.6c0 12.3 10 22.3 22.3 22.3s22.3-10 22.3-22.3V601.8c0-12.3-10-22.2-22.3-22.2z" fill="#707070" p-id="4388"></path></svg>