<?xml version="1.0" encoding="utf-8"?>
<svg version="1.1" xmlns:xlink="http://www.w3.org/1999/xlink" width="10px" height="113px" preserveAspectRatio="xMidYMin meet" viewBox="557 874  8 113" xmlns="http://www.w3.org/2000/svg">
  <path d="M 551 879  L 556 879  A 5 5 0 0 1 561 884 L 561 977  A 5 5 0 0 0 566 982 L 574 982  A 3 3 0 0 1 577 979 A 3 3 0 0 1 580 982 L 612 982  A 3 3 0 0 1 615 979 A 3 3 0 0 1 618 982 L 831 982  A 5 5 0 0 1 836 987 L 836 1089  " stroke-width="2" stroke="#0099cc" fill="none" />
  <path d="M 828.4 1088  L 836 1095  L 843.6 1088  L 828.4 1088  Z " fill-rule="nonzero" fill="#0099cc" stroke="none" />
</svg>