<svg t="1753254804444" class="icon" viewBox="0 0 1024 1024" version="1.1" xmlns="http://www.w3.org/2000/svg" p-id="5511" width="200" height="200"><path d="M512 20.48C240.64 20.48 25.6 240.64 25.6 506.88c0 271.36 220.16 486.4 486.4 486.4 271.36 0 486.4-220.16 486.4-486.4S778.24 20.48 512 20.48z m81.92 163.84l-25.6 460.8H450.56l-25.6-460.8h168.96zM506.88 865.28c-40.96 0-81.92-30.72-81.92-76.8v-5.12c0-46.08 30.72-81.92 76.8-81.92h5.12c40.96 0 81.92 30.72 81.92 76.8v5.12c0 40.96-30.72 81.92-76.8 81.92h-5.12z" fill="#FF8800" p-id="5512"></path></svg>