<?xml version="1.0" encoding="utf-8"?>
<svg version="1.1" xmlns:xlink="http://www.w3.org/1999/xlink" width="66px" height="66px" xmlns="http://www.w3.org/2000/svg">
  <g transform="matrix(1 0 0 1 -713 -686 )">
    <path d="M 746 686  C 764.48 686  779 700.52  779 719  C 779 737.48  764.48 752  746 752  C 727.52 752  713 737.48  713 719  C 713 700.52  727.52 686  746 686  Z " fill-rule="nonzero" fill="#ffffff" stroke="none" />
    <path d="M 746 686.5  C 764.2 686.5  778.5 700.8  778.5 719  C 778.5 737.2  764.2 751.5  746 751.5  C 727.8 751.5  713.5 737.2  713.5 719  C 713.5 700.8  727.8 686.5  746 686.5  Z " stroke-width="1" stroke="#797979" fill="none" />
  </g>
</svg>