<?xml version="1.0" encoding="utf-8"?>
<svg version="1.1" xmlns:xlink="http://www.w3.org/1999/xlink" width="101px" height="71px" xmlns="http://www.w3.org/2000/svg">
  <g transform="matrix(1 0 0 1 -1331 -977 )">
    <path d="M 97.16695069084824 9.051110242122725  C 98.67550269754462 7.471327501576766  98.59221974330356 4.977102535715082  96.99611674330362 3.483749914915948  C 95.40001374330356 1.998296305148094  92.88283808705356 2.0691575120800896  91.38593647544647 3.657182591911565  L 38.4371203470982 59.605530022057366  L 9.51301663169643 31.321924975839547  C 7.9486349587053695 29.793084586135723  5.435496597098187 29.808882384452748  3.8949925189732317 31.361305028887646  C 2.354488440848217 32.909835501050004  2.3743286283481813 35.40795275104941  3.938710301339303 36.93290096848638  L 35.761222627232144 68.0455762657549  C 35.77310376674106 68.05736744905302  35.78902208816964 68.06137406407572  35.80090311495535 68.07316524737384  C 35.812784141741105 68.08495643067197  35.81682143638392 68.1007542289909  35.8287025758929 68.11254530041815  C 36.078782183035756 68.34894028518914  36.380538733258945 68.48287846638652  36.670414143973225 68.64051323319424  C 36.81333320200893 68.72328006617641  36.93641207254466 68.84542706407565  37.087290404017835 68.90449719958039  C 37.55584360714283 69.08571433298248  38.0520808426339 69.18027234926467  38.54439621205352 69.18027234926467  C 39.06451104241069 69.18027234926467  39.58462576004465 69.07781543382207  40.06898196874996 68.87290160294066  C 40.231741327008955 68.8059325682774  40.35885737946429 68.66798777205925  40.50973571093752 68.58132865493747  C 40.80745496651784 68.408010420692  41.11717067745535 68.26216672531531  41.371287579241084 68.00608165808768  C 41.38316871875 67.99429047478955  41.38720590066966 67.97460050419998  41.399087040178635 67.96269487814982  C 41.407046200892836 67.95090369485169  41.422964522321415 67.94689707983089  41.43484566183039 67.93510589653276  L 97.16695069084824 9.051110242122725  Z " fill-rule="nonzero" fill="#ffffff" stroke="none" transform="matrix(1 0 0 1 1331 977 )" />
  </g>
</svg>