<?xml version="1.0" encoding="utf-8"?>
<svg version="1.1" xmlns:xlink="http://www.w3.org/1999/xlink" width="40px" height="50px" xmlns="http://www.w3.org/2000/svg">
  <defs>
    <mask fill="white" id="clip96">
      <path d="M 30 14  C 30 24  21 30  15 40  C 9.990040988461715 31.650068314103237  2.8884412021493517 26.0889909945721  0.6812236733835562 18.659419353193016  C 0.2450452897087416 17.19122761055803  0 15.650068314103237  0 14  C 0 8.799999999999955  3 0  15 0  C 27 0  30 8.799999999999955  30 14  Z " fill-rule="evenodd" />
    </mask>
    <filter x="2618px" y="546px" width="40px" height="50px" filterUnits="userSpaceOnUse" id="filter97">
      <feOffset dx="1" dy="1" in="SourceAlpha" result="shadowOffsetInner" />
      <feGaussianBlur stdDeviation="2.5" in="shadowOffsetInner" result="shadowGaussian" />
      <feComposite in2="shadowGaussian" operator="atop" in="SourceAlpha" result="shadowComposite" />
      <feColorMatrix type="matrix" values="0 0 0 0 0  0 0 0 0 0  0 0 0 0 0  0 0 0 0.6980392156862745 0  " in="shadowComposite" />
    </filter>
    <g id="widget98">
      <path d="M 30 14  C 30 24  21 30  15 40  C 9.990040988461715 31.650068314103237  2.8884412021493517 26.0889909945721  0.6812236733835562 18.659419353193016  C 0.2450452897087416 17.19122761055803  0 15.650068314103237  0 14  C 0 8.799999999999955  3 0  15 0  C 27 0  30 8.799999999999955  30 14  Z " fill-rule="nonzero" fill="#f59a23" stroke="none" fill-opacity="0.9254901960784314" transform="matrix(1 0 0 1 2622 550 )" />
      <path d="M 30 14  C 30 24  21 30  15 40  C 9.990040988461715 31.650068314103237  2.8884412021493517 26.0889909945721  0.6812236733835562 18.659419353193016  C 0.2450452897087416 17.19122761055803  0 15.650068314103237  0 14  C 0 8.799999999999955  3 0  15 0  C 27 0  30 8.799999999999955  30 14  Z " stroke-width="2" stroke="#ffffff" fill="none" transform="matrix(1 0 0 1 2622 550 )" mask="url(#clip96)" />
    </g>
  </defs>
  <g transform="matrix(1 0 0 1 -2618 -546 )">
    <use xlink:href="#widget98" filter="url(#filter97)" />
    <use xlink:href="#widget98" />
  </g>
</svg>