<?xml version="1.0" encoding="utf-8"?>
<svg version="1.1" xmlns:xlink="http://www.w3.org/1999/xlink" width="40px" height="50px" xmlns="http://www.w3.org/2000/svg">
  <defs>
    <mask fill="white" id="clip93">
      <path d="M 30 14  C 30 24  21 30  15 40  C 9 30  0 24  0 14  C 0 10.660970908058971  1.2369580558611233 5.837592149084628  5.299427603749223 2.8128741578195786  C 7.563600042899907 1.127081062930813  10.705451750633074 0  15 0  C 27 0  30 8.800000000000011  30 14  Z " fill-rule="evenodd" />
    </mask>
    <filter x="1009px" y="367px" width="40px" height="50px" filterUnits="userSpaceOnUse" id="filter94">
      <feOffset dx="1" dy="1" in="SourceAlpha" result="shadowOffsetInner" />
      <feGaussianBlur stdDeviation="2.5" in="shadowOffsetInner" result="shadowGaussian" />
      <feComposite in2="shadowGaussian" operator="atop" in="SourceAlpha" result="shadowComposite" />
      <feColorMatrix type="matrix" values="0 0 0 0 0  0 0 0 0 0  0 0 0 0 0  0 0 0 0.6980392156862745 0  " in="shadowComposite" />
    </filter>
    <g id="widget95">
      <path d="M 30 14  C 30 24  21 30  15 40  C 9 30  0 24  0 14  C 0 10.660970908058971  1.2369580558611233 5.837592149084628  5.299427603749223 2.8128741578195786  C 7.563600042899907 1.127081062930813  10.705451750633074 0  15 0  C 27 0  30 8.800000000000011  30 14  Z " fill-rule="nonzero" fill="#f59a23" stroke="none" fill-opacity="0.9254901960784314" transform="matrix(1 0 0 1 1013 371 )" />
      <path d="M 30 14  C 30 24  21 30  15 40  C 9 30  0 24  0 14  C 0 10.660970908058971  1.2369580558611233 5.837592149084628  5.299427603749223 2.8128741578195786  C 7.563600042899907 1.127081062930813  10.705451750633074 0  15 0  C 27 0  30 8.800000000000011  30 14  Z " stroke-width="2" stroke="#ffffff" fill="none" transform="matrix(1 0 0 1 1013 371 )" mask="url(#clip93)" />
    </g>
  </defs>
  <g transform="matrix(1 0 0 1 -1009 -367 )">
    <use xlink:href="#widget95" filter="url(#filter94)" />
    <use xlink:href="#widget95" />
  </g>
</svg>