<svg t="1744093520166" class="icon" viewBox="0 0 1720 1024" version="1.1" xmlns="http://www.w3.org/2000/svg" p-id="4532" width="200" height="200"><path d="M193.991881 939.852872c0 29.602657 126.724566 57.063845 332.55751 71.80219 205.832944 14.864313 459.408045 14.864313 665.240989 0 205.832944-14.864313 332.55751-42.199533 332.55751-71.80219s-126.724566-57.063845-332.55751-71.802189c-205.832944-14.864313-459.408045-14.864313-665.240989 0-205.832944 14.738344-332.55751 42.199533-332.55751 71.802189z m0 0" fill="#EEEEEE" p-id="4533"></path><path d="M1308.815352 904.833559H1028.786813c-11.08525 0-22.170501-1.889531-33.129783-5.542625-11.08525 3.653094-22.170501 5.542625-33.129782 5.542625H402.218231c-55.300283 0-99.515316-44.215033-99.515316-99.515316v-493.797515c0-55.300283 44.215033-99.515316 99.515316-99.515315H962.401279c55.300283 0 99.515316 44.215033 99.515316 99.515315h246.898757c55.300283 0 99.515316 44.215033 99.515316 99.515316v394.408168c0 55.174314-44.215033 99.389347-99.515316 99.389347z m0 0" fill="#EEEEEE" p-id="4534"></path><path d="M1308.815352 914.029278H1028.786813c-11.08525 0-22.170501-1.889531-33.129783-5.542625-11.08525 3.653094-22.170501 5.542625-33.129782 5.542625H402.218231c-58.953377 0-108.711035-47.868126-108.711035-108.711035v-493.797515c0-29.476688 11.08525-55.300283 31.36622-77.344815 20.280969-22.170501 47.868126-31.36622 77.344815-31.366219H962.401279c29.476688 0 55.300283 11.08525 77.344815 31.366219 18.391438 18.391438 29.476688 42.325501 31.36622 68.149096h239.59257c58.953377 0 108.711035 47.868126 108.711034 108.711035v394.408168c-1.889531 58.827408-49.757658 108.585066-110.600566 108.585066zM995.531062 888.205683l3.653093 1.889532c9.195719 3.653094 20.280969 5.542625 29.476689 5.542625H1308.815352c49.757658 0 90.319597-40.561939 90.319597-90.319597V410.910075c0-49.757658-40.561939-90.319597-90.319597-90.319596H1052.720876v-9.195719c0-23.934063-9.195719-46.104564-25.823595-64.496002-16.627876-16.627876-38.672407-25.823595-62.60647-25.823595H402.218231c-23.934063 0-46.104564 9.195719-62.606471 25.823595-16.627876 16.627876-25.823595 38.672407-25.823594 64.496002v493.797515c0 49.757658 40.561939 90.319597 90.319596 90.319596h560.183049c11.08525 0 20.280969-1.889531 29.476688-5.542625l1.763563-1.763563z m0 0" fill="#999999" p-id="4535"></path><path d="M560.686923 11.08525h608.051175c40.561939 0 73.691721 33.129782 73.691721 73.691721v571.268299c0 40.561939-33.129782 73.691721-73.691721 73.691721H560.686923c-40.561939 0-73.691721-33.129782-73.691721-73.691721V84.776971c0-42.325501 33.129782-73.691721 73.691721-73.691721z m0 0" fill="#FFFFFF" p-id="4536"></path><path d="M1168.864067 737.169147H560.686923c-46.104564 0-82.88744-36.908845-82.88744-82.88744V82.88744c0-46.104564 36.908845-82.88744 82.88744-82.88744h608.051175c46.104564 0 82.88744 36.908845 82.88744 82.88744v571.268299c0.125969 46.104564-36.782876 83.013409-82.761471 83.013408zM560.686923 18.391438c-35.019314 0-64.496002 29.476688-64.496002 64.496002v571.268299c0 35.019314 29.476688 64.496002 64.496002 64.496002h608.051175c35.019314 0 64.496002-29.476688 64.496002-64.496002V82.88744c0-35.019314-29.476688-64.496002-64.496002-64.496002H560.686923z m0 0" fill="#999999" p-id="4537"></path><path d="M658.312708 272.722352h412.799606c12.848813 0 23.934063 11.08525 23.934063 23.934063s-11.08525 23.934063-23.934063 23.934064H658.312708c-12.848813 0-23.934063-11.08525-23.934064-23.934064-1.763563-12.848813 9.195719-23.934063 23.934064-23.934063zM592.053143 140.077254h543.555173c12.848813 0 23.934063 11.08525 23.934063 23.934064s-11.08525 23.934063-23.934063 23.934063H592.053143c-12.848813 0-23.934063-11.08525-23.934063-23.934063-1.889531-12.848813 9.195719-23.934063 23.934063-23.934064z m0 0" fill="#DDDDDD" p-id="4538"></path><path d="M1308.815352 969.329561H402.218231c-55.300283 0-99.515316-44.215033-99.515316-99.515316V504.882765c0-55.300283 44.215033-99.515316 99.515316-99.515315H962.401279c55.300283 0 99.515316 44.215033 99.515316 99.515315h246.898757c55.300283 0 99.515316 44.215033 99.515316 99.515316v265.416164c0 53.410752-44.215033 97.625784-99.515316 99.515316z m0 0" fill="#FFFFFF" p-id="4539"></path><path d="M1308.815352 976.635749H402.218231c-58.953377 0-108.711035-49.757658-108.711035-108.711035V504.882765c0-29.476688 11.08525-55.300283 31.36622-77.344814 20.280969-20.280969 47.868126-31.36622 77.344815-31.36622H962.401279c29.476688 0 55.300283 11.08525 77.344815 31.36622 18.391438 18.391438 29.476688 42.325501 31.36622 68.149095h239.59257c29.476688 0 55.300283 11.08525 77.344815 31.36622 20.280969 20.280969 31.36622 47.868126 31.366219 77.344815v265.416164c0 29.476688-11.08525 55.300283-31.366219 77.344815-22.044532 18.517407-49.757658 29.476688-79.234347 29.476689zM402.218231 414.689138c-23.934063 0-46.104564 9.195719-62.606471 25.823594-16.627876 16.627876-25.823595 40.561939-25.823594 64.496002v364.805511c0 49.757658 40.561939 90.319597 90.319596 90.319597h906.597122c49.757658 0 90.319597-40.561939 90.319596-90.319597V604.398081c0-23.934063-9.195719-46.104564-25.823594-64.496002-16.627876-16.627876-38.672407-25.823595-62.606471-25.823595H1052.720876v-9.195719c0-23.934063-9.195719-46.104564-25.823595-64.496002-16.627876-18.391438-38.672407-25.823595-62.60647-25.823594H402.218231z m0 0" fill="#999999" p-id="4540"></path></svg>