<?xml version="1.0" encoding="utf-8"?>
<svg version="1.1" xmlns:xlink="http://www.w3.org/1999/xlink" width="40px" height="50px" xmlns="http://www.w3.org/2000/svg">
  <defs>
    <mask fill="white" id="clip159">
      <path d="M 30 14  C 30 24  21 30  15 40  C 11.778101870491753 34.63016978415296  7.691151444572824 30.413742630186885  4.59722230606485 26.112002815553986  C 1.9294625007074728 22.402800679102604  0 18.63016978415296  0 14  C 0 10.35753751982055  1.4719895990586451 4.948687520770757  6.478148368631764 2.0352877838595385  C 8.618810120459841 0.7895016089389433  11.405682646567982 0  15 0  C 27 0  30 8.799999999999999  30 14  Z " fill-rule="evenodd" />
    </mask>
    <filter x="448px" y="8px" width="40px" height="50px" filterUnits="userSpaceOnUse" id="filter160">
      <feOffset dx="1" dy="1" in="SourceAlpha" result="shadowOffsetInner" />
      <feGaussianBlur stdDeviation="2.5" in="shadowOffsetInner" result="shadowGaussian" />
      <feComposite in2="shadowGaussian" operator="atop" in="SourceAlpha" result="shadowComposite" />
      <feColorMatrix type="matrix" values="0 0 0 0 0  0 0 0 0 0  0 0 0 0 0  0 0 0 0.6980392156862745 0  " in="shadowComposite" />
    </filter>
    <g id="widget161">
      <path d="M 30 14  C 30 24  21 30  15 40  C 11.778101870491753 34.63016978415296  7.691151444572824 30.413742630186885  4.59722230606485 26.112002815553986  C 1.9294625007074728 22.402800679102604  0 18.63016978415296  0 14  C 0 10.35753751982055  1.4719895990586451 4.948687520770757  6.478148368631764 2.0352877838595385  C 8.618810120459841 0.7895016089389433  11.405682646567982 0  15 0  C 27 0  30 8.799999999999999  30 14  Z " fill-rule="nonzero" fill="#009dd9" stroke="none" transform="matrix(1 0 0 1 452 12 )" />
      <path d="M 30 14  C 30 24  21 30  15 40  C 11.778101870491753 34.63016978415296  7.691151444572824 30.413742630186885  4.59722230606485 26.112002815553986  C 1.9294625007074728 22.402800679102604  0 18.63016978415296  0 14  C 0 10.35753751982055  1.4719895990586451 4.948687520770757  6.478148368631764 2.0352877838595385  C 8.618810120459841 0.7895016089389433  11.405682646567982 0  15 0  C 27 0  30 8.799999999999999  30 14  Z " stroke-width="2" stroke="#ffffff" fill="none" transform="matrix(1 0 0 1 452 12 )" mask="url(#clip159)" />
    </g>
  </defs>
  <g transform="matrix(1 0 0 1 -448 -8 )">
    <use xlink:href="#widget161" filter="url(#filter160)" />
    <use xlink:href="#widget161" />
  </g>
</svg>