<?xml version="1.0" encoding="utf-8"?>
<svg version="1.1" xmlns:xlink="http://www.w3.org/1999/xlink" width="18px" height="18px" xmlns="http://www.w3.org/2000/svg">
  <g transform="matrix(1 0 0 1 -86 -184 )">
    <path d="M 95 184  C 100.04 184  104 187.96  104 193  C 104 198.04  100.04 202  95 202  C 89.96 202  86 198.04  86 193  C 86 187.96  89.96 184  95 184  Z " fill-rule="nonzero" fill="#ffffff" stroke="none" />
    <path d="M 95 184.5  C 99.76 184.5  103.5 188.24  103.5 193  C 103.5 197.76  99.76 201.5  95 201.5  C 90.24 201.5  86.5 197.76  86.5 193  C 86.5 188.24  90.24 184.5  95 184.5  Z " stroke-width="1" stroke="#797979" fill="none" />
  </g>
</svg>