<?xml version="1.0" encoding="utf-8"?>
<svg version="1.1" xmlns:xlink="http://www.w3.org/1999/xlink" width="37px" height="43px" xmlns="http://www.w3.org/2000/svg">
  <g transform="matrix(1 0 0 1 -911 -230 )">
    <path d="M 929.5 230  C 939.86 230  948 239.46  948 251.5  C 948 263.54  939.86 273  929.5 273  C 919.14 273  911 263.54  911 251.5  C 911 239.46  919.14 230  929.5 230  Z " fill-rule="nonzero" fill="#ffffff" stroke="none" />
    <path d="M 929.5 230.5  C 939.58 230.5  947.5 239.74  947.5 251.5  C 947.5 263.26  939.58 272.5  929.5 272.5  C 919.42 272.5  911.5 263.26  911.5 251.5  C 911.5 239.74  919.42 230.5  929.5 230.5  Z " stroke-width="1" stroke="#797979" fill="none" />
  </g>
</svg>