<svg t="1732791143911" class="icon" viewBox="0 0 1024 1024" version="1.1" xmlns="http://www.w3.org/2000/svg" p-id="5014" width="200" height="200"><path d="M440 112m72 0l0 0q72 0 72 72l0 0q0 72-72 72l0 0q-72 0-72-72l0 0q0-72 72-72Z" fill="#8a8a8a" p-id="5015"></path><path d="M440 440m72 0l0 0q72 0 72 72l0 0q0 72-72 72l0 0q-72 0-72-72l0 0q0-72 72-72Z" fill="#8a8a8a" p-id="5016"></path><path d="M440 768m72 0l0 0q72 0 72 72l0 0q0 72-72 72l0 0q-72 0-72-72l0 0q0-72 72-72Z" fill="#8a8a8a" p-id="5017"></path></svg>