<?xml version="1.0" encoding="utf-8"?>
<svg version="1.1" xmlns:xlink="http://www.w3.org/1999/xlink" width="40px" height="50px" xmlns="http://www.w3.org/2000/svg">
  <defs>
    <mask fill="white" id="clip44">
      <path d="M 30 14  C 30 24  21 30  15 40  C 9 30  0 24  0 14  C 0 9.821807494530276  1.9368298017118377 3.3194192270063354  8.92296931355213 0.9252936748222851  C 10.631480757600684 0.33979278445741556  12.641982704930115 0  15 0  C 27 0  30 8.800000000000011  30 14  Z " fill-rule="evenodd" />
    </mask>
    <filter x="913px" y="362px" width="40px" height="50px" filterUnits="userSpaceOnUse" id="filter45">
      <feOffset dx="1" dy="1" in="SourceAlpha" result="shadowOffsetInner" />
      <feGaussianBlur stdDeviation="2.5" in="shadowOffsetInner" result="shadowGaussian" />
      <feComposite in2="shadowGaussian" operator="atop" in="SourceAlpha" result="shadowComposite" />
      <feColorMatrix type="matrix" values="0 0 0 0 0  0 0 0 0 0  0 0 0 0 0  0 0 0 0.6980392156862745 0  " in="shadowComposite" />
    </filter>
    <g id="widget46">
      <path d="M 30 14  C 30 24  21 30  15 40  C 9 30  0 24  0 14  C 0 9.821807494530276  1.9368298017118377 3.3194192270063354  8.92296931355213 0.9252936748222851  C 10.631480757600684 0.33979278445741556  12.641982704930115 0  15 0  C 27 0  30 8.800000000000011  30 14  Z " fill-rule="nonzero" fill="#02a7f0" stroke="none" fill-opacity="0.9254901960784314" transform="matrix(1 0 0 1 917 366 )" />
      <path d="M 30 14  C 30 24  21 30  15 40  C 9 30  0 24  0 14  C 0 9.821807494530276  1.9368298017118377 3.3194192270063354  8.92296931355213 0.9252936748222851  C 10.631480757600684 0.33979278445741556  12.641982704930115 0  15 0  C 27 0  30 8.800000000000011  30 14  Z " stroke-width="2" stroke="#ffffff" fill="none" transform="matrix(1 0 0 1 917 366 )" mask="url(#clip44)" />
    </g>
  </defs>
  <g transform="matrix(1 0 0 1 -913 -362 )">
    <use xlink:href="#widget46" filter="url(#filter45)" />
    <use xlink:href="#widget46" />
  </g>
</svg>