<?xml version="1.0" encoding="utf-8"?>
<svg version="1.1" xmlns:xlink="http://www.w3.org/1999/xlink" width="40px" height="50px" xmlns="http://www.w3.org/2000/svg">
  <defs>
    <mask fill="white" id="clip112">
      <path d="M 30 14  C 30 17.040828090690773  29.167802807058024 19.711790762296182  27.840817568012653 22.237827446042203  C 24.803908501070737 28.018859127914283  19.17550314558548 33.04082809069078  15 40  C 9 30  0 24  0 14  C 0 8.799999999999997  3 0  15 0  C 27 0  30 8.799999999999997  30 14  Z " fill-rule="evenodd" />
    </mask>
    <filter x="264px" y="187px" width="40px" height="50px" filterUnits="userSpaceOnUse" id="filter113">
      <feOffset dx="1" dy="1" in="SourceAlpha" result="shadowOffsetInner" />
      <feGaussianBlur stdDeviation="2.5" in="shadowOffsetInner" result="shadowGaussian" />
      <feComposite in2="shadowGaussian" operator="atop" in="SourceAlpha" result="shadowComposite" />
      <feColorMatrix type="matrix" values="0 0 0 0 0  0 0 0 0 0  0 0 0 0 0  0 0 0 0.6980392156862745 0  " in="shadowComposite" />
    </filter>
    <g id="widget114">
      <path d="M 30 14  C 30 17.040828090690773  29.167802807058024 19.711790762296182  27.840817568012653 22.237827446042203  C 24.803908501070737 28.018859127914283  19.17550314558548 33.04082809069078  15 40  C 9 30  0 24  0 14  C 0 8.799999999999997  3 0  15 0  C 27 0  30 8.799999999999997  30 14  Z " fill-rule="nonzero" fill="#4b7902" stroke="none" fill-opacity="0.9254901960784314" transform="matrix(1 0 0 1 268 191 )" />
      <path d="M 30 14  C 30 17.040828090690773  29.167802807058024 19.711790762296182  27.840817568012653 22.237827446042203  C 24.803908501070737 28.018859127914283  19.17550314558548 33.04082809069078  15 40  C 9 30  0 24  0 14  C 0 8.799999999999997  3 0  15 0  C 27 0  30 8.799999999999997  30 14  Z " stroke-width="2" stroke="#ffffff" fill="none" transform="matrix(1 0 0 1 268 191 )" mask="url(#clip112)" />
    </g>
  </defs>
  <g transform="matrix(1 0 0 1 -264 -187 )">
    <use xlink:href="#widget114" filter="url(#filter113)" />
    <use xlink:href="#widget114" />
  </g>
</svg>