<svg t="1719411790543" class="icon" viewBox="0 0 1024 1024" version="1.1" xmlns="http://www.w3.org/2000/svg" p-id="8474" width="200" height="200"><path d="M192 438.4c12.8 0 24-11.2 24-24V256c0-22.4 17.6-40 40-40h158.4c12.8 0 24-11.2 24-24s-11.2-24-24-24H256c-48 0-88 40-88 88v158.4c0 12.8 11.2 24 24 24zM768 168h-158.4c-12.8 0-24 11.2-24 24s11.2 24 24 24H768c22.4 0 40 17.6 40 40v158.4c0 12.8 11.2 24 24 24s24-11.2 24-24V256c0-48-40-88-88-88zM832 585.6c-12.8 0-24 11.2-24 24V768c0 22.4-17.6 40-40 40h-158.4c-12.8 0-24 11.2-24 24s11.2 24 24 24H768c48 0 88-40 88-88v-158.4c0-12.8-11.2-24-24-24zM414.4 808H256c-22.4 0-40-17.6-40-40v-158.4c0-12.8-11.2-24-24-24s-24 11.2-24 24V768c0 48 40 88 88 88h158.4c12.8 0 24-11.2 24-24s-11.2-24-24-24zM832 488H192c-12.8 0-24 11.2-24 24s11.2 24 24 24h640c12.8 0 24-11.2 24-24s-11.2-24-24-24z" p-id="8475" fill="#bfbfbf"></path></svg>