<?xml version="1.0" encoding="utf-8"?>
<svg version="1.1" xmlns:xlink="http://www.w3.org/1999/xlink" width="41px" height="20px" xmlns="http://www.w3.org/2000/svg">
  <g transform="matrix(1 0 0 1 -360 -405 )">
    <path d="M 361 410  A 4 4 0 0 1 365 406 L 396 406  A 4 4 0 0 1 400 410 L 400 420  A 4 4 0 0 1 396 424 L 365 424  A 4 4 0 0 1 361 420 L 361 410  Z " fill-rule="nonzero" fill="#ffffff" stroke="none" />
    <path d="M 360.5 410  A 4.5 4.5 0 0 1 365 405.5 L 396 405.5  A 4.5 4.5 0 0 1 400.5 410 L 400.5 420  A 4.5 4.5 0 0 1 396 424.5 L 365 424.5  A 4.5 4.5 0 0 1 360.5 420 L 360.5 410  Z " stroke-width="1" stroke="#797979" fill="none" stroke-opacity="0.2" />
  </g>
</svg>