<svg t="1733985734420" class="icon" viewBox="0 0 1024 1024" version="1.1" xmlns="http://www.w3.org/2000/svg" p-id="10218" width="200" height="200"><path d="M365.63 353.14c26.03 0 44.62 22.31 44.62 44.62 0 26.03-22.31 44.62-44.62 44.62s-40.91-18.59-44.62-44.62c0-26.03 22.31-44.62 44.62-44.62z m281.13 0c26.03 0 44.62 24.1 44.62 48.19 0 28.11-22.31 48.19-44.62 48.19-26.03 0-44.62-20.08-44.62-48.19s18.59-48.19 44.62-48.19z m10.83 150.75c0 76.04-67 137.69-149.64 137.69S358.3 579.93 358.3 503.89h299.29zM498.61 97c220.91 0 401.61 180.7 401.61 401.61 0 16.82-1.05 33.41-3.08 49.71l-76.6-0.02c2.51-16.21 3.82-32.81 3.82-49.69 0-179.02-146.74-325.75-325.75-325.75S172.86 319.6 172.86 498.61 319.6 824.37 498.61 824.37c16.88 0 33.48-1.31 49.69-3.82l0.02 76.6a401.853 401.853 0 0 1-49.71 3.08C277.7 900.23 97 719.52 97 498.61S277.7 97 498.61 97zM755.2 583.4c19.34 0 35.29 14.47 37.63 33.17l0.3 4.76v95.94h95.94c20.95 0 37.93 16.98 37.93 37.93 0 19.34-14.47 35.29-33.17 37.63l-4.76 0.3h-95.94v95.94c0 20.95-16.98 37.93-37.93 37.93-19.34 0-35.29-14.47-37.63-33.17l-0.3-4.76v-95.94h-95.94c-20.95 0-37.93-16.98-37.93-37.93 0-19.34 14.47-35.29 33.17-37.63l4.76-0.3h95.94v-95.94c0-20.95 16.98-37.93 37.93-37.93z" fill="#8a8a8a" p-id="10219"></path></svg>