<?xml version="1.0" encoding="utf-8"?>
<svg version="1.1" xmlns:xlink="http://www.w3.org/1999/xlink" width="38px" height="36px" xmlns="http://www.w3.org/2000/svg">
  <g transform="matrix(1 0 0 1 -89 -187 )">
    <path d="M 108 187  C 118.64 187  127 194.92  127 205  C 127 215.08  118.64 223  108 223  C 97.36 223  89 215.08  89 205  C 89 194.92  97.36 187  108 187  Z " fill-rule="nonzero" fill="#ffffff" stroke="none" />
    <path d="M 108 187.5  C 118.36 187.5  126.5 195.2  126.5 205  C 126.5 214.8  118.36 222.5  108 222.5  C 97.64 222.5  89.5 214.8  89.5 205  C 89.5 195.2  97.64 187.5  108 187.5  Z " stroke-width="1" stroke="#797979" fill="none" />
  </g>
</svg>