<?xml version="1.0" encoding="utf-8"?>
<svg version="1.1" xmlns:xlink="http://www.w3.org/1999/xlink" width="55px" height="52px" xmlns="http://www.w3.org/2000/svg">
  <g transform="matrix(1 0 0 1 -475 -81 )">
    <path d="M 502.5 81  C 517.9 81  530 92.44  530 107  C 530 121.56  517.9 133  502.5 133  C 487.1 133  475 121.56  475 107  C 475 92.44  487.1 81  502.5 81  Z " fill-rule="nonzero" fill="#ffffff" stroke="none" />
    <path d="M 502.5 81.5  C 517.62 81.5  529.5 92.72  529.5 107  C 529.5 121.28  517.62 132.5  502.5 132.5  C 487.38 132.5  475.5 121.28  475.5 107  C 475.5 92.72  487.38 81.5  502.5 81.5  Z " stroke-width="1" stroke="#797979" fill="none" />
  </g>
</svg>