<?xml version="1.0" encoding="utf-8"?>
<svg version="1.1" xmlns:xlink="http://www.w3.org/1999/xlink" width="24px" height="25px" xmlns="http://www.w3.org/2000/svg">
  <g transform="matrix(1 0 0 1 -497 -424 )">
    <path d="M 509 424  C 515.72 424  521 429.5  521 436.5  C 521 443.5  515.72 449  509 449  C 502.28 449  497 443.5  497 436.5  C 497 429.5  502.28 424  509 424  Z " fill-rule="nonzero" fill="#ffffff" stroke="none" />
    <path d="M 509 424.5  C 515.44 424.5  520.5 429.78  520.5 436.5  C 520.5 443.22  515.44 448.5  509 448.5  C 502.56 448.5  497.5 443.22  497.5 436.5  C 497.5 429.78  502.56 424.5  509 424.5  Z " stroke-width="1" stroke="#797979" fill="none" />
  </g>
</svg>