<?xml version="1.0" encoding="utf-8"?>
<svg version="1.1" xmlns:xlink="http://www.w3.org/1999/xlink" width="7px" height="7px" xmlns="http://www.w3.org/2000/svg">
  <g transform="matrix(1 0 0 1 -779 -974 )">
    <path d="M 6.648042953124989 6.186934268229026  L 3.958291941406255 3.4890687434896233  L 6.647063618489575 0.8142409479165356  C 6.7742094127604044 0.6877480403645677  6.7748529752604085 0.4827683528642916  6.648360076822918 0.35562255859384906  C 6.52154073046875 0.22815964062505778  6.316887481770827 0.22783320182305844  6.189741687499998 0.35432610026055045  L 3.5003171145833316 3.0294803437499365  L 0.8342473763020988 0.355305434895854  C 0.7080809166666613 0.22881252734388605  0.5027747812499983 0.22815964062505778  0.3756289869791579 0.35465254817702574  C 0.24880964062501376 0.4811454557289936  0.24849251692708507 0.6864515911457449  0.37497610026041805 0.813597385416895  L 3.040411600260402 3.487128722656154  L 0.35292704817707155 6.1603336302082425  C 0.22578125390624215 6.286826537760211  0.22513769140624773 6.491806225260486  0.35163058984375084 6.618952019531283  C 0.41487703906249684 6.682524916666681  0.4982325286458386 6.714628484374872  0.581588009114594 6.714628484374872  C 0.6642906028645763 6.714628484374872  0.747002520833326 6.683168479166499  0.8102489791666585 6.620248477864582  L 3.4983770937500047 3.9463906835936644  L 6.188771677083331 6.644899761718584  C 6.252018126302087 6.708472658854159  6.335047167968755 6.740259111979363  6.418402657552086 6.740259111979363  C 6.501431699218731 6.740259111979363  6.584143617187491 6.708472658854159  6.647390066406238 6.645552657552242  C 6.7742094127604044 6.519059750000098  6.7745358606771 6.314080062499999  6.648042953124989 6.186934268229026  Z " fill-rule="nonzero" fill="#ff4b4b" stroke="none" transform="matrix(1 0 0 1 779 974 )" />
  </g>
</svg>