<?xml version="1.0" encoding="utf-8"?>
<svg version="1.1" xmlns:xlink="http://www.w3.org/1999/xlink" width="40px" height="50px" xmlns="http://www.w3.org/2000/svg">
  <defs>
    <filter x="1167px" y="858px" width="40px" height="50px" filterUnits="userSpaceOnUse" id="filter37">
      <feOffset dx="1" dy="1" in="SourceAlpha" result="shadowOffsetInner" />
      <feGaussianBlur stdDeviation="2.5" in="shadowOffsetInner" result="shadowGaussian" />
      <feComposite in2="shadowGaussian" operator="atop" in="SourceAlpha" result="shadowComposite" />
      <feColorMatrix type="matrix" values="0 0 0 0 0  0 0 0 0 0  0 0 0 0 0  0 0 0 0.6980392156862745 0  " in="shadowComposite" />
    </filter>
    <g id="widget38">
      <path d="M 1186 901.0369284683536  C 1180.2 891.4073405959099  1171.5 885.6295878724437  1171.5 876  C 1171.5 870.9857142857143  1174.4 862.5  1186 862.5  C 1197.6 862.5  1200.5 870.9857142857143  1200.5 876  C 1200.5 885.6295878724437  1191.8 891.4073405959099  1186 901.0369284683536  Z " fill-rule="nonzero" fill="#8400ff" stroke="none" fill-opacity="0.9254901960784314" />
      <path d="M 1186 902  C 1180 892  1171 886  1171 876  C 1171 870.8  1174 862  1186 862  C 1198 862  1201 870.8  1201 876  C 1201 886  1192 892  1186 902  Z M 1186 900.0738569367072  C 1191.6 890.8146811918198  1200 885.2591757448873  1200 876  C 1200 871.1714285714286  1197.2 863  1186 863  C 1174.8 863  1172 871.1714285714286  1172 876  C 1172 885.2591757448873  1180.4 890.8146811918198  1186 900.0738569367072  Z " fill-rule="nonzero" fill="#ffffff" stroke="none" />
    </g>
  </defs>
  <g transform="matrix(1 0 0 1 -1167 -858 )">
    <use xlink:href="#widget38" filter="url(#filter37)" />
    <use xlink:href="#widget38" />
  </g>
</svg>