<?xml version="1.0" encoding="utf-8"?>
<svg version="1.1" xmlns:xlink="http://www.w3.org/1999/xlink" width="40px" height="50px" xmlns="http://www.w3.org/2000/svg">
  <defs>
    <mask fill="white" id="clip39">
      <path d="M 30 14  C 30 24  21 30  15 40  C 10.115399113149465 31.85899852191571  3.2425210743137995 26.36903324647824  0.8559927767537374 19.213686244847082  C 0.3110287954036721 17.57976202365205  0 15.858998521915709  0 14  C 0 8.799999999999997  3 0  15 0  C 27 0  30 8.799999999999997  30 14  Z " fill-rule="evenodd" />
    </mask>
    <filter x="700px" y="100px" width="40px" height="50px" filterUnits="userSpaceOnUse" id="filter40">
      <feOffset dx="1" dy="1" in="SourceAlpha" result="shadowOffsetInner" />
      <feGaussianBlur stdDeviation="2.5" in="shadowOffsetInner" result="shadowGaussian" />
      <feComposite in2="shadowGaussian" operator="atop" in="SourceAlpha" result="shadowComposite" />
      <feColorMatrix type="matrix" values="0 0 0 0 0  0 0 0 0 0  0 0 0 0 0  0 0 0 0.6980392156862745 0  " in="shadowComposite" />
    </filter>
    <g id="widget41">
      <path d="M 30 14  C 30 24  21 30  15 40  C 10.115399113149465 31.85899852191571  3.2425210743137995 26.36903324647824  0.8559927767537374 19.213686244847082  C 0.3110287954036721 17.57976202365205  0 15.858998521915709  0 14  C 0 8.799999999999997  3 0  15 0  C 27 0  30 8.799999999999997  30 14  Z " fill-rule="nonzero" fill="#f59a23" stroke="none" fill-opacity="0.9254901960784314" transform="matrix(1 0 0 1 704 104 )" />
      <path d="M 30 14  C 30 24  21 30  15 40  C 10.115399113149465 31.85899852191571  3.2425210743137995 26.36903324647824  0.8559927767537374 19.213686244847082  C 0.3110287954036721 17.57976202365205  0 15.858998521915709  0 14  C 0 8.799999999999997  3 0  15 0  C 27 0  30 8.799999999999997  30 14  Z " stroke-width="2" stroke="#ffffff" fill="none" transform="matrix(1 0 0 1 704 104 )" mask="url(#clip39)" />
    </g>
  </defs>
  <g transform="matrix(1 0 0 1 -700 -100 )">
    <use xlink:href="#widget41" filter="url(#filter40)" />
    <use xlink:href="#widget41" />
  </g>
</svg>