<?xml version="1.0" encoding="utf-8"?>
<svg version="1.1" xmlns:xlink="http://www.w3.org/1999/xlink" width="12px" height="9px" xmlns="http://www.w3.org/2000/svg">
  <g transform="matrix(1 0 0 1 -471 -448 )">
    <path d="M 11.54458820089286 1.1473238335085145  C 11.723822102678568 0.9470696832984633  11.713927098214285 0.6309003214286724  11.524291098214292 0.44160210189075394  C 11.334655098214284 0.25330516544130766  11.035584723214285 0.2622875719538142  10.857735026785718 0.46358652573526876  L 4.566786575892856 7.555630566176286  L 1.1302594017857146 3.9703848560923367  C 0.94439227232143 3.776588186974951  0.6458015758928539 3.778590724789785  0.46277138839285925 3.9753766938026596  C 0.2797412008928575 4.171669288865494  0.28209845089285324 4.488332038865417  0.467965580357145 4.681635334033484  L 4.248858133928572 8.625495582983016  C 4.250269754464284 8.626990240020806  4.252161040178571 8.62749812079833  4.253572647321427 8.628992777836121  C 4.25498425446429 8.630487434873912  4.255463933035713 8.632489972688987  4.256875553571433 8.633984615545963  C 4.286587982142862 8.663950176995808  4.3224402455357165 8.680928256302517  4.356880888392858 8.700910128151383  C 4.373861370535714 8.711401698529404  4.388484602678574 8.726885120798322  4.406410741071426 8.734372884453853  C 4.462080428571426 8.75734407037806  4.521039308035711 8.769330297794113  4.579532223214279 8.769330297794113  C 4.641328044642854 8.769330297794113  4.703123852678573 8.756342801470403  4.760671124999995 8.730367808823463  C 4.780008870535717 8.721878776260516  4.7951117678571435 8.704392816176524  4.813037906250003 8.693407857668129  C 4.8484104910714265 8.671437940651098  4.885208397321428 8.652950711659688  4.915400504464287 8.620489224264634  C 4.916812125 8.618994567226844  4.917291790178574 8.61649865546197  4.9187034107142935 8.614989491596456  C 4.919649053571426 8.613494834558665  4.921540339285713 8.61298695378138  4.922951959821432 8.61149229674359  L 11.54458820089286 1.1473238335085145  Z " fill-rule="nonzero" fill="#ffffff" stroke="none" transform="matrix(1 0 0 1 471 448 )" />
  </g>
</svg>