<?xml version="1.0" encoding="utf-8"?>
<svg version="1.1" xmlns:xlink="http://www.w3.org/1999/xlink" width="13px" height="12px" xmlns="http://www.w3.org/2000/svg">
  <g transform="matrix(1 0 0 1 -104 -1233 )">
    <path d="M 12.34636548437498 10.606173031249758  L 7.35111360546876 5.981260703125068  L 12.344546720052067 1.3958416249997754  C 12.580674623697893 1.1789966406249732  12.581869811197903 0.8276028906244999  12.346954428385418 0.6096386718751698  C 12.111432785156252 0.39113081250009907  11.731362466145823 0.390571203125243  11.495234562499997 0.6074161718752293  L 6.50058892708333 5.193394874999891  L 1.549316555989612 0.6090950312500354  C 1.3150074166666568 0.39225004687523324  0.9337245937499968 0.39113081250009907  0.6975966901041504 0.6079757968749012  C 0.4620750468750256 0.8248207812497033  0.4614861028645865 1.1767741562498486  0.6963841861979192 1.3947383750003914  L 5.646478686197889 5.977934953124835  L 0.6554359466145614 10.560571937499844  C 0.4193080429687354 10.777416921874647  0.4181128554687458 11.128810671875119  0.6530282382812516 11.346774890625056  C 0.7704859296874942 11.455757000000025  0.9252889817708432 11.51079168749978  1.080092016927103 11.51079168749978  C 1.2336825481770701 11.51079168749978  1.3872903958333198 11.456860249999712  1.5047481041666515 11.348997390624998  L 6.496986031250009 6.7652411718748535  L 11.493433114583327 11.391256734374716  C 11.61089080598959 11.500238843749987  11.765087597656258 11.554729906250335  11.919890649739587 11.554729906250335  C 12.074087441406215 11.554729906250335  12.227695289062485 11.500238843749987  12.345152980468727 11.392375984375272  C 12.580674623697893 11.175531000000168  12.581280884114614 10.824137249999998  12.34636548437498 10.606173031249758  Z " fill-rule="nonzero" fill="#ff4b4b" stroke="none" transform="matrix(1 0 0 1 104 1233 )" />
  </g>
</svg>