<?xml version="1.0" encoding="utf-8"?>
<svg version="1.1" xmlns:xlink="http://www.w3.org/1999/xlink" width="40px" height="50px" xmlns="http://www.w3.org/2000/svg">
  <defs>
    <filter x="1324px" y="712px" width="40px" height="50px" filterUnits="userSpaceOnUse" id="filter1">
      <feOffset dx="1" dy="1" in="SourceAlpha" result="shadowOffsetInner" />
      <feGaussianBlur stdDeviation="2.5" in="shadowOffsetInner" result="shadowGaussian" />
      <feComposite in2="shadowGaussian" operator="atop" in="SourceAlpha" result="shadowComposite" />
      <feColorMatrix type="matrix" values="0 0 0 0 0  0 0 0 0 0  0 0 0 0 0  0 0 0 0.6980392156862745 0  " in="shadowComposite" />
    </filter>
    <g id="widget2">
      <path d="M 1343 755.0369284683536  C 1337.2 745.4073405959099  1328.5 739.6295878724437  1328.5 730  C 1328.5 724.9857142857143  1331.4 716.5  1343 716.5  C 1354.6 716.5  1357.5 724.9857142857143  1357.5 730  C 1357.5 739.6295878724437  1348.8 745.4073405959099  1343 755.0369284683536  Z " fill-rule="nonzero" fill="#009dd9" stroke="none" />
      <path d="M 1343 756  C 1337 746  1328 740  1328 730  C 1328 724.8  1331 716  1343 716  C 1355 716  1358 724.8  1358 730  C 1358 740  1349 746  1343 756  Z M 1343 754.0738569367072  C 1348.6 744.8146811918198  1357 739.2591757448873  1357 730  C 1357 725.1714285714286  1354.2 717  1343 717  C 1331.8 717  1329 725.1714285714286  1329 730  C 1329 739.2591757448873  1337.4 744.8146811918198  1343 754.0738569367072  Z " fill-rule="nonzero" fill="#ffffff" stroke="none" />
    </g>
  </defs>
  <g transform="matrix(1 0 0 1 -1324 -712 )">
    <use xlink:href="#widget2" filter="url(#filter1)" />
    <use xlink:href="#widget2" />
  </g>
</svg>