<?xml version="1.0" encoding="utf-8"?>
<svg version="1.1" xmlns:xlink="http://www.w3.org/1999/xlink" width="11px" height="13px" xmlns="http://www.w3.org/2000/svg">
  <g transform="matrix(1 0 0 1 -151 -360 )">
    <path d="M 156.5 360  C 159.58 360  162 362.86  162 366.5  C 162 370.14  159.58 373  156.5 373  C 153.42 373  151 370.14  151 366.5  C 151 362.86  153.42 360  156.5 360  Z " fill-rule="nonzero" fill="#d9001b" stroke="none" />
    <path d="M 156.5 360.5  C 159.3 360.5  161.5 363.14  161.5 366.5  C 161.5 369.86  159.3 372.5  156.5 372.5  C 153.7 372.5  151.5 369.86  151.5 366.5  C 151.5 363.14  153.7 360.5  156.5 360.5  Z " stroke-width="1" stroke="#797979" fill="none" />
  </g>
</svg>