<?xml version="1.0" encoding="utf-8"?>
<svg version="1.1" xmlns:xlink="http://www.w3.org/1999/xlink" width="83px" height="96px" xmlns="http://www.w3.org/2000/svg">
  <g transform="matrix(1 0 0 1 -184 -1304 )">
    <path d="M 225.5 1304  C 248.74 1304  267 1325.12  267 1352  C 267 1378.88  248.74 1400  225.5 1400  C 202.26 1400  184 1378.88  184 1352  C 184 1325.12  202.26 1304  225.5 1304  Z " fill-rule="nonzero" fill="#ffffff" stroke="none" fill-opacity="0" />
    <path d="M 225.5 1304.5  C 248.46 1304.5  266.5 1325.4  266.5 1352  C 266.5 1378.6  248.46 1399.5  225.5 1399.5  C 202.54 1399.5  184.5 1378.6  184.5 1352  C 184.5 1325.4  202.54 1304.5  225.5 1304.5  Z " stroke-width="1" stroke="#797979" fill="none" />
  </g>
</svg>