<svg t="1744080458083" class="icon" viewBox="0 0 1024 1024" version="1.1" xmlns="http://www.w3.org/2000/svg" p-id="7509" width="200" height="200"><path d="M513.2 959.6c246.4 0 446.1-199.7 446.1-446.1 0-246.4-199.7-446.1-446.1-446.1C266.8 67.3 67.1 267 67.1 513.5c0 246.4 199.7 446.1 446.1 446.1z m0-66.1c-49.9 0-99.3-9.8-145.4-28.9-46.1-19.1-88-47.1-123.3-82.4-35.3-35.3-63.3-77.2-82.4-123.3-19.1-46.1-28.9-95.5-28.9-145.4 0-49.9 9.8-99.3 28.9-145.4 19.1-46.1 47.1-88 82.4-123.3 35.3-35.3 77.2-63.3 123.3-82.4 46.1-19.1 95.5-28.9 145.4-28.9 100.8 0 197.5 40 268.7 111.3s111.3 167.9 111.3 268.7-40 197.5-111.3 268.7S614 893.5 513.2 893.5z" fill="#bfbfbf" p-id="7510"></path><path d="M295.1 674.5c28.6 28.6 62.6 51.4 100.1 66.9 37.4 15.5 77.5 23.5 118 23.5s80.6-8 118-23.5c37.4-15.5 71.4-38.2 100.1-66.9a33.074 33.074 0 0 0 0-46.8 33.074 33.074 0 0 0-46.8 0c-45.4 45.4-107.1 71-171.3 71-64.3 0-125.9-25.5-171.4-71a33.074 33.074 0 0 0-46.8 0c-6.2 6.2-9.7 14.6-9.7 23.4 0.1 8.8 3.6 17.2 9.8 23.4zM306.7 427.4c0 13.7 5.4 26.8 15.1 36.5s22.8 15.1 36.5 15.1 26.8-5.4 36.5-15.1 15.1-22.8 15.1-36.5-5.4-26.8-15.1-36.5-22.8-15.1-36.5-15.1-26.8 5.4-36.5 15.1-15.1 22.8-15.1 36.5zM616.5 427.4c0 13.7 5.4 26.8 15.1 36.5s22.8 15.1 36.5 15.1 26.8-5.4 36.5-15.1 15.1-22.8 15.1-36.5-5.4-26.8-15.1-36.5-22.8-15.1-36.5-15.1-26.8 5.4-36.5 15.1-15.1 22.8-15.1 36.5z" fill="#bfbfbf" p-id="7511"></path></svg>