<?xml version="1.0" encoding="utf-8"?>
<svg version="1.1" xmlns:xlink="http://www.w3.org/1999/xlink" width="76px" height="56px" xmlns="http://www.w3.org/2000/svg">
  <g transform="matrix(1 0 0 1 -317 -153 )">
    <path d="M 317 153  L 393 153  L 393 209  L 317 209  L 317 153  " fill-rule="nonzero" fill="#cccccc" stroke="none" />
    <path d="M 321 157  L 389 157  L 389 205  L 321 205  L 321 157  " fill-rule="nonzero" fill="#ffffff" stroke="none" />
    <path d="M 360.71999999999997 169.8  C 358.368 169.8  356.52 167.95200000000003  356.52 165.60000000000002  C 356.52 163.24800000000002  358.368 161.4  360.71999999999997 161.4  C 363.07199999999995 161.4  364.91999999999996 163.24800000000002  364.91999999999996 165.60000000000002  C 364.91999999999996 167.95200000000003  363.07199999999995 169.8  360.71999999999997 169.8  " fill-rule="nonzero" fill="#cccccc" stroke="none" />
    <path d="M 323 204  L 323 179.25  L 339.25 168  L 362 184.10526315789474  L 375 174.75  L 388 184.10526315789474  L 388 204  L 323 204  " fill-rule="nonzero" fill="#169bd5" stroke="none" />
  </g>
</svg>