<?xml version="1.0" encoding="utf-8"?>
<svg version="1.1" xmlns:xlink="http://www.w3.org/1999/xlink" width="40px" height="50px" xmlns="http://www.w3.org/2000/svg">
  <defs>
    <mask fill="white" id="clip168">
      <path d="M 30 14  C 30 15.168015112064808  29.877216662818938 16.28145985204914  29.650771694235118 17.3530820238052  C 27.938500577343703 25.456188506558235  20.29919093276112 31.168015112064808  15 40  C 9 30  0 24  0 14  C 0 8.799999999999997  3 0  15 0  C 27 0  30 8.799999999999997  30 14  Z " fill-rule="evenodd" />
    </mask>
    <filter x="334px" y="274px" width="40px" height="50px" filterUnits="userSpaceOnUse" id="filter169">
      <feOffset dx="1" dy="1" in="SourceAlpha" result="shadowOffsetInner" />
      <feGaussianBlur stdDeviation="2.5" in="shadowOffsetInner" result="shadowGaussian" />
      <feComposite in2="shadowGaussian" operator="atop" in="SourceAlpha" result="shadowComposite" />
      <feColorMatrix type="matrix" values="0 0 0 0 0  0 0 0 0 0  0 0 0 0 0  0 0 0 0.6980392156862745 0  " in="shadowComposite" />
    </filter>
    <g id="widget170">
      <path d="M 30 14  C 30 15.168015112064808  29.877216662818938 16.28145985204914  29.650771694235118 17.3530820238052  C 27.938500577343703 25.456188506558235  20.29919093276112 31.168015112064808  15 40  C 9 30  0 24  0 14  C 0 8.799999999999997  3 0  15 0  C 27 0  30 8.799999999999997  30 14  Z " fill-rule="nonzero" fill="#009dd9" stroke="none" transform="matrix(1 0 0 1 338 278 )" />
      <path d="M 30 14  C 30 15.168015112064808  29.877216662818938 16.28145985204914  29.650771694235118 17.3530820238052  C 27.938500577343703 25.456188506558235  20.29919093276112 31.168015112064808  15 40  C 9 30  0 24  0 14  C 0 8.799999999999997  3 0  15 0  C 27 0  30 8.799999999999997  30 14  Z " stroke-width="2" stroke="#ffffff" fill="none" transform="matrix(1 0 0 1 338 278 )" mask="url(#clip168)" />
    </g>
  </defs>
  <g transform="matrix(1 0 0 1 -334 -274 )">
    <use xlink:href="#widget170" filter="url(#filter169)" />
    <use xlink:href="#widget170" />
  </g>
</svg>