<?xml version="1.0" encoding="utf-8"?>
<svg version="1.1" xmlns:xlink="http://www.w3.org/1999/xlink" width="300px" height="170px" xmlns="http://www.w3.org/2000/svg">
  <g transform="matrix(1 0 0 1 -184 -628 )">
    <path d="M 184 628  L 484 628  L 484 798  L 184 798  L 184 628  " fill-rule="nonzero" fill="#cccccc" stroke="none" />
    <path d="M 196 640  L 472 640  L 472 786  L 196 786  L 196 640  " fill-rule="nonzero" fill="#ffffff" stroke="none" />
    <path d="M 352.75 679  C 345.61 679  340 673.39  340 666.25  C 340 659.11  345.61 653.5  352.75 653.5  C 359.89 653.5  365.5 659.11  365.5 666.25  C 365.5 673.39  359.89 679  352.75 679  " fill-rule="nonzero" fill="#cccccc" stroke="none" />
    <path d="M 201 782  L 201 706.65  L 267.75 672.4  L 361.2 735.42  L 414.6 692.95  L 468 735.42  L 468 782  L 201 782  " fill-rule="nonzero" fill="#169bd5" stroke="none" />
  </g>
</svg>