<svg t="1709109873386" class="icon" viewBox="0 0 1024 1024" version="1.1" xmlns="http://www.w3.org/2000/svg" p-id="46244" width="32" height="32"><path d="M674.80640791 77.12605038A46.00840342 46.00840342 0 0 0 608.62993701 77.12605038a46.00840342 46.00840342 0 0 0 0 63.02521056 520.58823487 520.58823487 0 0 1 0 735.50420156 47.26890791 47.26890791 0 0 0 0 66.80672227 47.26890791 47.26890791 0 0 0 66.80672226 0A614.49579844 614.49579844 0 0 0 674.80640791 77.12605038z" p-id="46245" fill="#8a8a8a"></path><path d="M467.45346641 242.88235332a47.26890791 47.26890791 0 0 0-63.02520967 0 46.63865566 46.63865566 0 0 0 0 63.02520967 299.36974747 299.36974747 0 0 1 0 422.26890732 47.26890791 47.26890791 0 0 0 0 63.02521055 46.63865566 46.63865566 0 0 0 63.02520967 0 393.90756329 393.90756329 0 0 0 0-548.31932753zM190.14254229 457.79831914a78.15126094 78.15126094 0 0 0 0 110.92436982 78.7815123 78.7815123 0 1 0 0-110.92436982z" p-id="46246" fill="#8a8a8a"></path></svg>