<svg t="1709111194626" class="icon" viewBox="0 0 1024 1024" version="1.1" xmlns="http://www.w3.org/2000/svg" p-id="51248" width="32" height="32"><path d="M511.3 64.2c-247.4 0-448 200.6-448 448s200.6 448 448 448 448-200.6 448-448c0-247.5-200.5-448-448-448z m0 821.3C305.5 885.5 138 718 138 512.2s167.5-373.3 373.3-373.3 373.3 167.5 373.3 373.3-167.4 373.3-373.3 373.3z" p-id="51249" fill="#8a8a8a"></path><path d="M306 456.2c-30.9 0-56 25.1-56 56s25.1 56 56 56 56-25.1 56-56c0-31-25.1-56-56-56zM716.7 456.2c-30.9 0-56 25.1-56 56s25.1 56 56 56 56-25.1 56-56c0-31-25.1-56-56-56zM511.3 456.2c-30.9 0-56 25.1-56 56s25.1 56 56 56 56-25.1 56-56c0-31-25-56-56-56z" p-id="51250" fill="#8a8a8a"></path></svg>