<svg t="1709111523406" class="icon" viewBox="0 0 1336 1024" version="1.1" xmlns="http://www.w3.org/2000/svg" p-id="54670" width="32" height="32"><path d="M587.259548 806.435617C581.471722 806.435617 575.55033 805.322574 569.851548 802.873878 478.537461 764.095443 419.457113 674.695791 419.457113 575.189704 419.457113 438.864139 530.004591 328.005009 665.840417 328.005009 801.720765 328.005009 912.223722 438.864139 912.223722 575.189704 912.223722 673.226574 855.948243 762.448139 768.863722 802.384139 746.513809 812.535096 720.067896 802.829357 709.827896 780.479443 699.587896 758.12953 709.382678 731.683617 731.732591 721.443617 787.295722 695.977183 823.180243 638.544139 823.180243 575.189704 823.180243 488.016139 752.613287 417.048487 665.840417 417.048487 579.11207 417.048487 508.500591 488.016139 508.500591 575.189704 508.500591 638.900313 546.255026 696.110748 604.71207 720.953878 627.329113 730.570574 637.880765 756.704835 628.26407 779.321878 621.051548 796.240139 604.578504 806.435617 587.259548 806.435617" fill="#707070" p-id="54671"></path><path d="M1153.629496 1007.477983 1053.589148 1007.477983C1029.013148 1007.477983 1009.067409 987.576765 1009.067409 962.956243 1009.067409 938.335722 1029.013148 918.434504 1053.589148 918.434504L1153.629496 918.434504C1201.891061 918.434504 1242.672974 885.978157 1242.672974 847.511374L1242.672974 313.91833C1242.672974 275.451548 1201.891061 242.950678 1153.629496 242.950678L981.46393 242.950678 892.019757 125.190678C874.834365 102.573635 847.587061 89.039026 819.182191 89.039026L495.687235 89.039026C464.655583 89.039026 435.983583 104.577113 419.0208 130.62233L345.960626 242.950678 178.069148 242.950678C129.807583 242.950678 89.02567 275.451548 89.02567 313.91833L89.02567 847.511374C89.02567 885.978157 129.807583 918.434504 178.069148 918.434504L840.240974 918.434504C864.861496 918.434504 884.762713 938.335722 884.762713 962.956243 884.762713 987.576765 864.861496 1007.477983 840.240974 1007.477983L178.069148 1007.477983C79.898713 1007.477983-0.017809 935.753461-0.017809 847.511374L-0.017809 313.91833C-0.017809 225.676243 79.898713 153.9072 178.069148 153.9072L297.654539 153.9072 344.402365 82.049113C377.882713 30.671026 434.425322-0.004452 495.687235-0.004452L819.182191-0.004452C875.279583-0.004452 929.017322 26.66407 962.942887 71.363896L1025.629496 153.9072 1153.629496 153.9072C1251.844452 153.9072 1331.716452 225.676243 1331.716452 313.91833L1331.716452 847.511374C1331.716452 935.753461 1251.844452 1007.477983 1153.629496 1007.477983" fill="#707070" p-id="54672"></path></svg>