<svg t="1709111737339" class="icon" viewBox="0 0 1024 1024" version="1.1" xmlns="http://www.w3.org/2000/svg" p-id="56880" width="32" height="32"><path d="M917.883 398.896c4.479 15.952-4.822 32.514-20.773 36.993-15.952 4.479-32.514-4.822-36.993-20.773C816.616 260.183 674.19 151 510.134 151c-162.026 0-303.126 106.51-348.442 258.786-4.726 15.88-21.43 24.923-37.31 20.197-15.881-4.726-24.924-21.43-20.198-37.31C157.032 215.089 321.42 91 510.134 91c191.084 0 357.015 127.203 407.75 307.896zM103.16 628.132c-4.563-15.928 4.65-32.54 20.578-37.102 15.928-4.563 32.539 4.65 37.102 20.577C204.983 765.694 346.993 874 510.396 874c162.518 0 303.95-107.144 348.883-260.073 4.67-15.897 21.343-24.997 37.24-20.327 15.896 4.67 24.997 21.344 20.326 37.24C864.448 809.178 699.68 934 510.395 934 320.082 934 154.64 807.823 103.16 628.132z" fill="#707070" p-id="56881"></path><path d="M161.376 395.048c4.978 15.803-3.798 32.649-19.6 37.627-15.804 4.977-32.65-3.798-37.628-19.601L65.386 290.013c-4.978-15.803 3.798-32.65 19.601-37.627 15.803-4.978 32.65 3.798 37.627 19.601l38.762 123.06zM954.763 737.473c4.71 15.885-4.35 32.58-20.236 37.29-15.885 4.71-32.58-4.35-37.29-20.236l-36.762-124c-4.71-15.885 4.35-32.58 20.235-37.29 15.885-4.71 32.58 4.35 37.29 20.236l36.763 124z" fill="#707070" p-id="56882"></path><path d="M143.505 431.943c-15.432 6.03-32.83-1.593-38.86-17.025-6.03-15.433 1.593-32.831 17.025-38.86l125.412-49c15.433-6.03 32.831 1.592 38.86 17.024 6.03 15.433-1.592 32.831-17.024 38.86l-125.413 49zM787.781 697.59c-15.238 6.506-32.865-0.571-39.371-15.809s0.571-32.865 15.809-39.371l112.411-48c15.238-6.506 32.865 0.571 39.371 15.809 6.507 15.238-0.571 32.865-15.809 39.371l-112.411 48z" fill="#707070" p-id="56883"></path><path d="M401.027 359.213c-11.716-11.716-11.716-30.71 0-42.426 11.716-11.716 30.71-11.716 42.427 0l78.26 78.26c11.716 11.716 11.716 30.711 0 42.427-11.715 11.716-30.71 11.716-42.426 0l-78.26-78.26z" fill="#707070" p-id="56884"></path><path d="M625.019 359.213c11.716-11.716 11.716-30.71 0-42.426-11.716-11.716-30.71-11.716-42.427 0l-78.26 78.26c-11.716 11.716-11.716 30.711 0 42.427 11.715 11.716 30.71 11.716 42.426 0l78.26-78.26z" fill="#707070" p-id="56885"></path><path d="M392 485.75c-16.569 0-30-13.432-30-30 0-16.57 13.431-30 30-30h240c16.569 0 30 13.43 30 30 0 16.568-13.431 30-30 30H392zM392 599.468c-16.569 0-30-13.431-30-30 0-16.569 13.431-30 30-30h240c16.569 0 30 13.431 30 30 0 16.569-13.431 30-30 30H392z" fill="#707070" p-id="56886"></path><path d="M482.941 457.2c0-16.568 13.432-30 30-30 16.569 0 30 13.432 30 30v228.066c0 16.569-13.431 30-30 30-16.568 0-30-13.431-30-30V457.2z" fill="#707070" p-id="56887"></path></svg>