<svg t="1722585491894" class="icon" viewBox="0 0 1024 1024" version="1.1" xmlns="http://www.w3.org/2000/svg" p-id="4543" width="200" height="200"><path d="M455.42 731.04c-8.85 0-17.75-3.05-24.99-9.27L235.14 553.91c-16.06-13.81-17.89-38.03-4.09-54.09 13.81-16.06 38.03-17.89 54.09-4.09l195.29 167.86c16.06 13.81 17.89 38.03 4.09 54.09-7.58 8.83-18.31 13.36-29.1 13.36z" p-id="4544" fill="#36ab60"></path><path d="M469.89 731.04c-8.51 0-17.07-2.82-24.18-8.6-16.43-13.37-18.92-37.53-5.55-53.96L734.1 307.11c13.37-16.44 37.53-18.92 53.96-5.55 16.43 13.37 18.92 37.53 5.55 53.96L499.67 716.89c-7.58 9.31-18.64 14.15-29.78 14.15z" p-id="4545" fill="#36ab60"></path></svg>