<?xml version="1.0" encoding="utf-8"?>
<svg version="1.1" xmlns:xlink="http://www.w3.org/1999/xlink" width="41px" height="50px" xmlns="http://www.w3.org/2000/svg">
  <defs>
    <filter x="491px" y="254px" width="41px" height="50px" filterUnits="userSpaceOnUse" id="filter190">
      <feOffset dx="1" dy="1" in="SourceAlpha" result="shadowOffsetInner" />
      <feGaussianBlur stdDeviation="2.5" in="shadowOffsetInner" result="shadowGaussian" />
      <feComposite in2="shadowGaussian" operator="atop" in="SourceAlpha" result="shadowComposite" />
      <feColorMatrix type="matrix" values="0 0 0 0 0  0 0 0 0 0  0 0 0 0 0  0 0 0 0.6980392156862745 0  " in="shadowComposite" />
    </filter>
    <g id="widget191">
      <path d="M 510.5 297.05791956538167  C 504.5 287.420258194081  495.5 281.6376613713006  495.5 272  C 495.5 266.98571428571427  498.5 258.5  510.5 258.5  C 522.5 258.5  525.5 266.98571428571427  525.5 272  C 525.5 281.6376613713006  516.5 287.420258194081  510.5 297.05791956538167  Z " fill-rule="nonzero" fill="#009dd9" stroke="none" />
      <path d="M 510.5 298  C 504.3 288  495 282  495 272  C 495 266.8  498.1 258  510.5 258  C 522.9 258  526 266.8  526 272  C 526 282  516.7 288  510.5 298  Z M 510.5 296.1158391307633  C 516.3 286.84051638816203  525 281.27532274260125  525 272  C 525 267.1714285714286  522.1 259  510.5 259  C 498.9 259  496 267.1714285714286  496 272  C 496 281.27532274260125  504.7 286.84051638816203  510.5 296.1158391307633  Z " fill-rule="nonzero" fill="#ffffff" stroke="none" />
    </g>
  </defs>
  <g transform="matrix(1 0 0 1 -491 -254 )">
    <use xlink:href="#widget191" filter="url(#filter190)" />
    <use xlink:href="#widget191" />
  </g>
</svg>