<svg t="1744709471957" class="icon" viewBox="0 0 1024 1024" version="1.1" xmlns="http://www.w3.org/2000/svg" p-id="4684" width="200" height="200"><path d="M512 0c282.624 0 512 229.376 512 512s-229.376 512-512 512S0 794.624 0 512 229.376 0 512 0z" fill="#F1F3F4" p-id="4685"></path><path d="M333.312 818.176v-140.8c-58.88-45.568-92.16-111.104-92.16-180.736 0-132.608 121.856-240.64 271.36-240.64s271.36 108.032 271.36 241.152c0 132.608-121.856 240.64-271.36 240.64-13.312 0-27.136-1.024-41.472-3.072l-137.728 83.456zM512 304.64c-122.88 0-222.208 86.016-222.208 191.488 0 57.856 29.696 112.128 81.92 148.48l10.24 7.168v78.848l78.848-47.616 8.704 1.536c15.36 2.56 28.672 3.584 42.496 3.584 122.88 0 222.208-86.016 222.208-191.488 0-105.472-99.328-192-222.208-192z" fill="#5F6368" p-id="4686"></path><path d="M512 462.336c-17.92 0-32.256 14.336-32.256 32.256s14.336 32.256 32.256 32.256 32.256-14.336 32.256-32.256-14.336-32.256-32.256-32.256z m-129.536 0c-17.92 0-32.256 14.336-32.256 32.256s14.336 32.256 32.256 32.256 32.256-14.336 32.256-32.256-14.336-32.256-32.256-32.256z m259.072 0c-17.92 0-32.256 14.336-32.256 32.256s14.336 32.256 32.256 32.256 32.256-14.336 32.256-32.256-14.336-32.256-32.256-32.256z" fill="#5F6368" p-id="4687"></path></svg>