<?xml version="1.0" encoding="utf-8"?>
<svg version="1.1" xmlns:xlink="http://www.w3.org/1999/xlink" width="29px" height="27px" xmlns="http://www.w3.org/2000/svg">
  <g transform="matrix(1 0 0 1 -2131 -761 )">
    <path d="M 2145.5 761  C 2153.62 761  2160 766.94  2160 774.5  C 2160 782.06  2153.62 788  2145.5 788  C 2137.38 788  2131 782.06  2131 774.5  C 2131 766.94  2137.38 761  2145.5 761  Z " fill-rule="nonzero" fill="#ffffff" stroke="none" />
    <path d="M 2145.5 761.5  C 2153.34 761.5  2159.5 767.22  2159.5 774.5  C 2159.5 781.78  2153.34 787.5  2145.5 787.5  C 2137.66 787.5  2131.5 781.78  2131.5 774.5  C 2131.5 767.22  2137.66 761.5  2145.5 761.5  Z " stroke-width="1" stroke="#797979" fill="none" />
  </g>
</svg>