<svg t="1716272638215" class="icon" viewBox="0 0 1024 1024" version="1.1" xmlns="http://www.w3.org/2000/svg" p-id="3623" width="200" height="200"><path d="M396.14464 945.23392c154.39872 41.3696 319.13984-2.7648 432.16896-115.79392s157.16352-277.77024 115.79392-432.16896C902.71744 242.87232 782.1312 122.2656 627.73248 80.896 473.33376 39.5264 308.59264 83.68128 195.584 196.7104c-82.51392 82.49344-128.28672 192.55296-130.92864 306.03264v20.5824c0.79872 35.2256 5.77536 70.656 15.11424 105.55392 41.3696 154.37824 161.97632 274.98496 316.37504 316.35456zM271.9744 456.25344c40.05888-12.94336 107.64288-21.85216 184.44288-24.7808l-0.02048-33.42336-163.69664-0.2048 0.4096-84.86912h438.0672v85.07392h-163.28704v33.42336c126.21824 4.83328 221.14304 25.66144 221.14304 50.62656s-94.9248 45.79328-221.14304 50.62656v282.84928h-111.28832l-0.14336-282.8288c-76.82048-2.92864-144.40448-11.83744-184.48384-24.7808-49.50016-16.03584-49.50016-35.7376 0-51.712z" fill="#00A57A" p-id="3624"></path><path d="M511.93856 522.38336c13.86496-0.02048 27.42272-0.22528 40.63232-0.6144H469.6064c13.74208 0.4096 27.89376 0.6144 42.33216 0.6144z" fill="#FFFFFF" p-id="3625"></path><path d="M567.86944 506.28608v14.9504c0.4096-0.02048 0.79872-0.04096 1.20832-0.04096v-14.90944h-1.20832zM456.43776 506.28608h-1.65888v14.97088l1.67936 0.06144-0.02048-15.03232z" fill="#00A57A" p-id="3626"></path><path d="M567.86944 521.76896h1.20832v-0.59392c-0.4096 0.02048-0.79872 0.04096-1.20832 0.04096v0.55296zM454.77888 521.25696v0.512h1.67936v-0.45056l-1.67936-0.06144zM567.86944 442.92096v63.34464h1.20832v14.90944c105.30816-4.38272 183.21408-20.23424 183.21408-39.09632 0.02048-18.944-78.49984-34.83648-184.4224-39.15776zM269.94688 482.07872c0 18.98496 78.78656 34.89792 184.832 39.17824v-14.97088h1.65888l-0.02048-63.42656c-106.88512 4.15744-186.4704 20.15232-186.4704 39.2192z" fill="#00A57A" p-id="3627"></path><path d="M456.45824 521.3184c4.34176 0.16384 8.72448 0.32768 13.14816 0.45056h82.96448c5.16096-0.14336 10.26048-0.32768 15.29856-0.53248v-14.9504h-111.43168l0.02048 15.03232z" fill="#00A57A" p-id="3628"></path><path d="M456.45824 521.3184v0.45056h13.14816c-4.42368-0.12288-8.8064-0.28672-13.14816-0.45056zM552.57088 521.76896h15.29856v-0.53248c-5.03808 0.2048-10.1376 0.38912-15.29856 0.53248z" fill="#00A57A" p-id="3629"></path></svg>