<?xml version="1.0" encoding="utf-8"?>
<svg version="1.1" xmlns:xlink="http://www.w3.org/1999/xlink" width="33px" height="33px" xmlns="http://www.w3.org/2000/svg">
  <g transform="matrix(1 0 0 1 -142 -607 )">
    <path d="M 158.5 607  C 167.74 607  175 614.26  175 623.5  C 175 632.74  167.74 640  158.5 640  C 149.26 640  142 632.74  142 623.5  C 142 614.26  149.26 607  158.5 607  Z " fill-rule="nonzero" fill="#ffffff" stroke="none" />
    <path d="M 158.5 607.5  C 167.46 607.5  174.5 614.54  174.5 623.5  C 174.5 632.46  167.46 639.5  158.5 639.5  C 149.54 639.5  142.5 632.46  142.5 623.5  C 142.5 614.54  149.54 607.5  158.5 607.5  Z " stroke-width="1" stroke="#797979" fill="none" />
  </g>
</svg>