<?xml version="1.0" encoding="utf-8"?>
<svg version="1.1" xmlns:xlink="http://www.w3.org/1999/xlink" width="34px" height="34px" xmlns="http://www.w3.org/2000/svg">
  <defs>
    <path d="M 0 0  L 1024 0  L 1024 1024  L 0 1024  Z " fill-rule="evenodd" fill="black" id="path135" />
    <clipPath id="clip136">
      <use xlink:href="#path135" />
    </clipPath>
    <filter x="-50.00%" y="-50.00%" width="200.00%" height="200.00%" filterUnits="objectBoundingBox" id="filter137">
      <feColorMatrix type="matrix" values="1 0 0 0 0  0 1 0 0 0  0 0 1 0 0  0 0 0 1 0  " in="SourceGraphic" />
    </filter>
  </defs>
  <g transform="matrix(1 0 0 1 -223 -699 )">
    <g transform="matrix(0.033203125 0 0 0.033203125 223 699 )" clip-path="url(#clip136)" filter="url(#filter137)">
      <path d="M513.024 63.488q92.16 0 174.08 35.328t142.336 95.744 95.744 142.336 35.328 174.08q0 93.184-35.328 174.592t-95.744 142.336-142.336 96.256-174.08 35.328q-93.184 0-174.592-35.328t-142.336-96.256-96.256-142.336-35.328-174.592q0-92.16 35.328-174.08t96.256-142.336 142.336-95.744 174.592-35.328zM274.432 371.712q0 35.84 19.968 60.416t48.64 24.576 49.152-24.576 20.48-60.416q0-34.816-20.48-59.392t-49.152-24.576-48.64 24.576-19.968 59.392zM510.976 840.704q27.648 0 51.712-10.752t41.984-28.672 28.672-42.496 10.752-52.224-10.752-51.712-28.672-41.984-41.984-28.672-51.712-10.752-51.712 10.752-42.496 28.672-28.672 41.984-10.24 51.712 10.24 52.224 28.672 42.496 42.496 28.672 51.712 10.752zM674.816 454.656q29.696 0 50.688-24.576t20.992-59.392q0-35.84-20.992-60.416t-50.688-24.576-50.176 24.576-20.48 60.416q0 34.816 20.48 59.392t50.176 24.576z" p-id="6067" fill="#bfbfbf"></path>
    </g>
    <path d="M 223.5 732.5  L 223.5 699.5  L 256.5 699.5  L 256.5 732.5  L 223.5 732.5  Z " stroke-width="1" stroke="#797979" fill="none" />
  </g>
</svg>