<?xml version="1.0" encoding="utf-8"?>
<svg version="1.1" xmlns:xlink="http://www.w3.org/1999/xlink" width="31px" height="36px" xmlns="http://www.w3.org/2000/svg">
  <defs>
    <path d="M 0 0  L 1024 0  L 1024 1024  L 0 1024  Z " fill-rule="evenodd" fill="black" id="path138" />
    <clipPath id="clip139">
      <use xlink:href="#path138" />
    </clipPath>
    <filter x="-50.00%" y="-50.00%" width="200.00%" height="200.00%" filterUnits="objectBoundingBox" id="filter140">
      <feColorMatrix type="matrix" values="1 0 0 0 0  0 1 0 0 0  0 0 1 0 0  0 0 0 1 0  " in="SourceGraphic" />
    </filter>
  </defs>
  <g transform="matrix(1 0 0 1 -809 -677 )">
    <g transform="matrix(0.0302734375 0 0 0.0302734375 809 679.5 )" clip-path="url(#clip139)" filter="url(#filter140)">
      <path d="M32 407.584a279.584 279.584 0 0 1 480-194.944 279.584 279.584 0 0 1 480 194.944 278.144 278.144 0 0 1-113.024 224.512L562.592 892.8a96 96 0 0 1-124.416-1.952l-308.16-270.688A278.976 278.976 0 0 1 32 407.584z" fill="#bfbfbf" p-id="7482"></path>
    </g>
    <path d="M 809.5 712.5  L 809.5 677.5  L 839.5 677.5  L 839.5 712.5  L 809.5 712.5  Z " stroke-width="1" stroke="#797979" fill="none" />
  </g>
</svg>