<svg t="1736338332775" class="icon" viewBox="0 0 1024 1024" version="1.1" xmlns="http://www.w3.org/2000/svg" p-id="6066" width="200" height="200"><path d="M513.024 63.488q92.16 0 174.08 35.328t142.336 95.744 95.744 142.336 35.328 174.08q0 93.184-35.328 174.592t-95.744 142.336-142.336 96.256-174.08 35.328q-93.184 0-174.592-35.328t-142.336-96.256-96.256-142.336-35.328-174.592q0-92.16 35.328-174.08t96.256-142.336 142.336-95.744 174.592-35.328zM274.432 371.712q0 35.84 19.968 60.416t48.64 24.576 49.152-24.576 20.48-60.416q0-34.816-20.48-59.392t-49.152-24.576-48.64 24.576-19.968 59.392zM510.976 840.704q27.648 0 51.712-10.752t41.984-28.672 28.672-42.496 10.752-52.224-10.752-51.712-28.672-41.984-41.984-28.672-51.712-10.752-51.712 10.752-42.496 28.672-28.672 41.984-10.24 51.712 10.24 52.224 28.672 42.496 42.496 28.672 51.712 10.752zM674.816 454.656q29.696 0 50.688-24.576t20.992-59.392q0-35.84-20.992-60.416t-50.688-24.576-50.176 24.576-20.48 60.416q0 34.816 20.48 59.392t50.176 24.576z" p-id="6067" fill="#bfbfbf"></path></svg>