<svg t="1729567620091" class="icon" viewBox="0 0 1024 1024" version="1.1" xmlns="http://www.w3.org/2000/svg" p-id="4276" width="200" height="200"><path d="M960 814.748V714.123c0-12.564-10.185-22.749-22.749-22.749-12.563 0-22.748 10.185-22.748 22.749v100.625c-0.055 55.07-44.684 99.7-99.755 99.755H714.123c-12.564 0-22.749 10.185-22.749 22.748 0 12.564 10.185 22.749 22.749 22.749h100.625c80.181-0.096 145.156-65.071 145.252-145.252M332.626 937.251c0-12.563-10.185-22.748-22.749-22.748H209.252c-55.07-0.055-99.7-44.684-99.755-99.755V714.123c0-12.564-10.185-22.749-22.748-22.749C74.185 691.374 64 701.56 64 714.123v100.625C64.096 894.93 129.071 959.904 209.252 960h100.625c12.57 0 22.749-10.205 22.749-22.749M109.497 309.877V209.252c0.055-55.07 44.684-99.7 99.755-99.755h100.625c12.564 0 22.749-10.185 22.749-22.748C332.626 74.185 322.44 64 309.877 64H209.252C129.07 64.096 64.096 129.071 64 209.252v100.625c0 12.564 10.185 22.749 22.749 22.749 12.563 0 22.748-10.185 22.748-22.749m850.503 0V209.252C959.904 129.07 894.929 64.096 814.748 64H714.123c-12.564 0-22.749 10.185-22.749 22.749 0 12.563 10.185 22.748 22.749 22.748h100.625c55.07 0.055 99.7 44.684 99.755 99.755v100.625c0 12.564 10.185 22.749 22.748 22.749 12.564 0 22.749-10.185 22.749-22.749M668.999 726.243c9.015-8.967 9.323-23.46 0.697-32.802-8.626-9.342-23.096-10.19-32.754-1.918A183.605 183.605 0 0 1 512 740.381a183.605 183.605 0 0 1-124.942-48.857c-9.658-8.272-24.128-7.425-32.754 1.918-8.626 9.343-8.318 23.834 0.697 32.802A230.72 230.72 0 0 0 512 787.62a230.72 230.72 0 0 0 156.999-61.376m-109.76-156.5v-168a23.644 23.644 0 1 0-47.239 0v168c0 7.242-5.9 13.14-13.116 13.14h-19.266a23.644 23.644 0 1 0 0 47.24h19.267c33.32-0.056 60.314-27.06 60.355-60.38m162.773-101.921v-67.374c0-12.323-9.99-22.313-22.313-22.313-12.323 0-22.313 9.99-22.313 22.313v67.374c0 12.323 9.99 22.313 22.313 22.313 12.323 0 22.313-9.99 22.313-22.313m-392.447 22.3a22.3 22.3 0 0 1-22.326-22.3v-67.374c0-12.323 9.99-22.313 22.313-22.313 12.323 0 22.313 9.99 22.313 22.313v67.374c0 12.316-9.984 22.3-22.3 22.3" fill="#8A8A8A" p-id="4277"></path></svg>