<svg t="1744012544012" class="icon" viewBox="0 0 1024 1024" version="1.1" xmlns="http://www.w3.org/2000/svg" p-id="8782" width="200" height="200"><path d="M512.22 32.4c-265.1 0-480 214.9-480 480s214.9 480 480 480 480-214.9 480-480-214.9-480-480-480z m224.14 520H552.14l-0.39 184.22c-0.05 22.06-17.95 39.92-40 39.92h-0.09c-22.09-0.05-39.96-17.99-39.92-40.08l0.39-184.05H288.09c-22.09 0-40-17.91-40-40s17.91-40 40-40h184.22l0.39-184.22c0.05-22.06 17.95-39.92 40-39.92h0.09c22.09 0.05 39.96 17.99 39.91 40.08l-0.39 184.05h184.05c22.09 0 40 17.91 40 40s-17.91 40-40 40z" fill="#bfbfbf" p-id="8783"></path></svg>