<?xml version="1.0" encoding="utf-8"?>
<svg version="1.1" xmlns:xlink="http://www.w3.org/1999/xlink" width="341px" height="40px" xmlns="http://www.w3.org/2000/svg">
  <g transform="matrix(1 0 0 1 -84 -119 )">
    <path d="M 85 124  A 4 4 0 0 1 89 120 L 420 120  A 4 4 0 0 1 424 124 L 424 154  A 4 4 0 0 1 420 158 L 89 158  A 4 4 0 0 1 85 154 L 85 124  Z " fill-rule="nonzero" fill="#ffffff" stroke="none" />
    <path d="M 84.5 124  A 4.5 4.5 0 0 1 89 119.5 L 420 119.5  A 4.5 4.5 0 0 1 424.5 124 L 424.5 154  A 4.5 4.5 0 0 1 420 158.5 L 89 158.5  A 4.5 4.5 0 0 1 84.5 154 L 84.5 124  Z " stroke-width="1" stroke="#797979" fill="none" stroke-opacity="0.25882352941176473" />
  </g>
</svg>