<svg t="1709113002050" class="icon" viewBox="0 0 1024 1024" version="1.1" xmlns="http://www.w3.org/2000/svg" p-id="64078" width="32" height="32"><path d="M853.333333 938.666667H256a128 128 0 0 1-128-128V213.333333a128 128 0 0 1 128-128h597.333333a42.666667 42.666667 0 0 1 42.666667 42.666667v768a42.666667 42.666667 0 0 1-42.666667 42.666667z m-42.666666-85.333334v-85.333333H256a42.666667 42.666667 0 0 0 0 85.333333h554.666667zM213.333333 689.92c13.354667-4.693333 27.733333-7.253333 42.666667-7.253333h554.666667V170.666667H256a42.666667 42.666667 0 0 0-42.666667 42.666666v476.586667zM512 426.666667a85.333333 85.333333 0 1 1 0-170.666667 85.333333 85.333333 0 0 1 0 170.666667z m-128 170.666666a128 128 0 0 1 256 0H384z" p-id="64079" fill="#8a8a8a"></path></svg>