<?xml version="1.0" encoding="utf-8"?>
<svg version="1.1" xmlns:xlink="http://www.w3.org/1999/xlink" width="41px" height="37px" xmlns="http://www.w3.org/2000/svg">
  <g transform="matrix(1 0 0 1 -156 -347 )">
    <path d="M 176.5 347  C 187.98 347  197 355.14  197 365.5  C 197 375.86  187.98 384  176.5 384  C 165.02 384  156 375.86  156 365.5  C 156 355.14  165.02 347  176.5 347  Z " fill-rule="nonzero" fill="#ffffff" stroke="none" />
    <path d="M 176.5 347.5  C 187.7 347.5  196.5 355.42  196.5 365.5  C 196.5 375.58  187.7 383.5  176.5 383.5  C 165.3 383.5  156.5 375.58  156.5 365.5  C 156.5 355.42  165.3 347.5  176.5 347.5  Z " stroke-width="1" stroke="#797979" fill="none" />
  </g>
</svg>