<svg t="1730199450296" class="icon" viewBox="0 0 1026 1024" version="1.1" xmlns="http://www.w3.org/2000/svg" p-id="7864" width="200" height="200"><path d="M487.86343 635.729992a272.638998 272.638998 0 1 1 272.638998-272.638997 272.638998 272.638998 0 0 1-272.638998 272.638997z m0-481.127643a208.488645 208.488645 0 1 0 208.488645 208.488646 208.488645 208.488645 0 0 0-208.488645-208.488646z" p-id="7865" fill="#01870a"></path><path d="M199.186844 924.406578h-64.150352A352.826938 352.826938 0 0 1 737.729052 674.861707l-45.386374 45.386374a288.676586 288.676586 0 0 0-493.155834 204.158497z" p-id="7866" fill="#01870a"></path><path d="M659.305247 933.548003l-157.970243-159.413626 45.54675-45.225998 112.90462 113.866876 250.667502-248.261864 45.065623 45.54675-296.214252 293.487862z" p-id="7867" fill="#01870a"></path></svg>