<?xml version="1.0" encoding="utf-8"?>
<svg version="1.1" xmlns:xlink="http://www.w3.org/1999/xlink" width="38px" height="37px" xmlns="http://www.w3.org/2000/svg">
  <g transform="matrix(1 0 0 1 -154 -493 )">
    <path d="M 173 493  C 183.64 493  192 501.14  192 511.5  C 192 521.86  183.64 530  173 530  C 162.36 530  154 521.86  154 511.5  C 154 501.14  162.36 493  173 493  Z " fill-rule="nonzero" fill="#ffffff" stroke="none" />
    <path d="M 173 493.5  C 183.36 493.5  191.5 501.42  191.5 511.5  C 191.5 521.58  183.36 529.5  173 529.5  C 162.64 529.5  154.5 521.58  154.5 511.5  C 154.5 501.42  162.64 493.5  173 493.5  Z " stroke-width="1" stroke="#797979" fill="none" />
  </g>
</svg>