<svg t="1747031199225" class="icon" viewBox="0 0 1024 1024" version="1.1" xmlns="http://www.w3.org/2000/svg" p-id="2271" width="200" height="200"><path d="M469.333333 106.666667c200.298667 0 362.666667 162.368 362.666667 362.666666 0 86.08-29.994667 165.162667-80.085333 227.349334a20.949333 20.949333 0 0 1 10.901333 5.802666l135.765333 135.765334a21.333333 21.333333 0 0 1 0 30.165333l-30.165333 30.165333a21.333333 21.333333 0 0 1-30.165333 0l-135.765334-135.765333a21.226667 21.226667 0 0 1-5.845333-10.901333A360.96 360.96 0 0 1 469.333333 832c-200.298667 0-362.666667-162.368-362.666666-362.666667S269.034667 106.666667 469.333333 106.666667z m0 85.333333C316.16 192 192 316.16 192 469.333333s124.16 277.333333 277.333333 277.333334 277.333333-124.16 277.333334-277.333334S622.506667 192 469.333333 192z" fill="#515151" p-id="2272"></path></svg>