<?xml version="1.0" encoding="utf-8"?>
<svg version="1.1" xmlns:xlink="http://www.w3.org/1999/xlink" width="41px" height="41px" xmlns="http://www.w3.org/2000/svg">
  <g transform="matrix(1 0 0 1 -108 -422 )">
    <path d="M 108 422  L 149 422  L 149 463  L 108 463  L 108 422  " fill-rule="nonzero" fill="#cccccc" stroke="none" />
    <path d="M 111 425  L 146 425  L 146 460  L 111 460  L 111 425  " fill-rule="nonzero" fill="#ffffff" stroke="none" />
    <path d="M 132.39499999999998 434.29999999999995  C 130.673 434.29999999999995  129.32 432.94699999999995  129.32 431.22499999999997  C 129.32 429.503  130.673 428.15  132.39499999999998 428.15  C 134.117 428.15  135.47 429.503  135.47 431.22499999999997  C 135.47 432.94699999999995  134.117 434.29999999999995  132.39499999999998 434.29999999999995  " fill-rule="nonzero" fill="#cccccc" stroke="none" />
    <path d="M 112 459  L 112 440.85  L 120.25 432.6  L 131.8 439.2  L 138.4 437.55  L 145 439.2  L 145 459  L 112 459  " fill-rule="nonzero" fill="#169bd5" stroke="none" />
  </g>
</svg>