<svg t="1725519596799" class="icon" viewBox="0 0 1024 1024" version="1.1" xmlns="http://www.w3.org/2000/svg" p-id="5577" width="200" height="200"><path d="M833.264 370.463c-19.328-38.153-44.711-73.248-75.595-104.132-157.951-157.951-412.905-159.245-569.457-2.694C31.661 420.19 32.955 675.143 190.906 833.094c157.951 157.951 412.905 159.245 569.457 2.694 46.455-46.456 80.028-102.65 98.94-164.246 4.445-14.481-3.69-29.825-18.17-34.271-14.482-4.446-29.826 3.689-34.272 18.17-16.299 53.087-45.21 101.478-85.288 141.557-135.04 135.04-355.261 133.922-491.877-2.694C93.08 657.688 91.962 437.467 227.002 302.427c135.04-135.04 355.261-133.922 491.877 2.694 27.856 27.855 50.507 59.605 67.457 94.162l-92.649-28.326c-14.084-4.306-29.028 3.737-33.377 17.965-4.35 14.228 3.54 29.253 17.625 33.558l153.009 46.78c7.042 2.153 14.299 1.219 20.339-2.032a26.993 26.993 0 0 0 13.038-15.933l47.257-154.57c4.35-14.228-3.541-29.253-17.625-33.558-14.084-4.306-29.028 3.737-33.378 17.965l-27.311 89.331z" p-id="5578" fill="#707070"></path></svg>