<?xml version="1.0" encoding="utf-8"?>
<svg version="1.1" xmlns:xlink="http://www.w3.org/1999/xlink" width="35px" height="37px" xmlns="http://www.w3.org/2000/svg">
  <g transform="matrix(1 0 0 1 -651 -356 )">
    <path d="M 651 356  L 686 356  L 686 393  L 651 393  L 651 356  " fill-rule="nonzero" fill="#cccccc" stroke="none" />
    <path d="M 653 358  L 684 358  L 684 391  L 653 391  L 653 358  " fill-rule="nonzero" fill="#ffffff" stroke="none" />
    <path d="M 671.825 366.8  C 670.355 366.8  669.2 365.64500000000004  669.2 364.175  C 669.2 362.705  670.355 361.55  671.825 361.55  C 673.2950000000001 361.55  674.45 362.705  674.45 364.175  C 674.45 365.64500000000004  673.2950000000001 366.8  671.825 366.8  " fill-rule="nonzero" fill="#cccccc" stroke="none" />
    <path d="M 654 390  L 654 372.95  L 661.25 365.2  L 671.4 371.4  L 677.2 369.85  L 683 371.4  L 683 390  L 654 390  " fill-rule="nonzero" fill="#169bd5" stroke="none" />
  </g>
</svg>