<?xml version="1.0" encoding="utf-8"?>
<svg version="1.1" xmlns:xlink="http://www.w3.org/1999/xlink" width="170px" height="170px" xmlns="http://www.w3.org/2000/svg">
  <g transform="matrix(1 0 0 1 -141 -1083 )">
    <path d="M 226 1083  C 273.6 1083  311 1120.4  311 1168  C 311 1215.6  273.6 1253  226 1253  C 178.4 1253  141 1215.6  141 1168  C 141 1120.4  178.4 1083  226 1083  Z " fill-rule="nonzero" fill="#ffffff" stroke="none" />
    <path d="M 226 1083.5  C 273.32 1083.5  310.5 1120.68  310.5 1168  C 310.5 1215.32  273.32 1252.5  226 1252.5  C 178.68 1252.5  141.5 1215.32  141.5 1168  C 141.5 1120.68  178.68 1083.5  226 1083.5  Z " stroke-width="1" stroke="#797979" fill="none" />
  </g>
</svg>