<svg t="1753866378453" class="icon" viewBox="0 0 1024 1024" version="1.1" xmlns="http://www.w3.org/2000/svg" p-id="8164" width="200" height="200"><path d="M170.077091 337.245091a29.114182 29.114182 0 1 0 0-58.181818H54.016a28.183273 28.183273 0 0 0-30.557091 29.090909v640a28.183273 28.183273 0 0 0 30.557091 29.090909H726.109091a28.183273 28.183273 0 0 0 30.557091-29.090909v-110.638546a30.580364 30.580364 0 0 0-61.114182 0v81.454546H84.549818v-581.818182h85.527273zM970.472727 46.382545H298.402909a28.183273 28.183273 0 0 0-30.533818 29.09091v640a28.183273 28.183273 0 0 0 30.533818 29.090909H970.472727a28.183273 28.183273 0 0 0 30.533818-29.090909v-640a28.183273 28.183273 0 0 0-30.533818-29.09091z m-30.557091 640H328.936727v-581.818181h610.978909v581.818181z m0 0" fill="#ffffff" p-id="8165"></path></svg>