<svg t="1741675742915" class="icon" viewBox="0 0 1024 1024" version="1.1" xmlns="http://www.w3.org/2000/svg" p-id="6002" width="200" height="200"><path d="M512 225.57465256a286.42534744 286.42534744 0 1 0 286.42534744 286.42534744A286.42534744 286.42534744 0 0 0 512 225.57465256z m0 534.66046208A248.23511464 248.23511464 0 1 1 760.23511464 512 248.23511464 248.23511464 0 0 1 512 760.23511464z" fill="#1afa29" p-id="6003"></path><path d="M647.00200024 403.92198243L471.51836443 579.40561824l-94.52036467-94.32960091A19.09483669 19.09483669 0 1 0 349.88325334 512l108.07801759 108.07801757a19.09483669 19.09483669 0 0 0 26.92398265 0l189.04072931-189.0407293a19.09483669 19.09483669 0 1 0-26.92398265-26.92398267z" fill="#1afa29" p-id="6004"></path></svg>