<?xml version="1.0" encoding="utf-8"?>
<svg version="1.1" xmlns:xlink="http://www.w3.org/1999/xlink" width="96px" height="89px" xmlns="http://www.w3.org/2000/svg">
  <g transform="matrix(1 0 0 1 1130 -521 )">
    <path d="M -1082 521  C -1055.12 521  -1034 540.58  -1034 565.5  C -1034 590.42  -1055.12 610  -1082 610  C -1108.88 610  -1130 590.42  -1130 565.5  C -1130 540.58  -1108.88 521  -1082 521  Z " fill-rule="nonzero" fill="#ffffff" stroke="none" />
    <path d="M -1082 521.5  C -1055.4 521.5  -1034.5 540.86  -1034.5 565.5  C -1034.5 590.14  -1055.4 609.5  -1082 609.5  C -1108.6 609.5  -1129.5 590.14  -1129.5 565.5  C -1129.5 540.86  -1108.6 521.5  -1082 521.5  Z " stroke-width="1" stroke="#797979" fill="none" />
  </g>
</svg>