<?xml version="1.0" encoding="utf-8"?>
<svg version="1.1" xmlns:xlink="http://www.w3.org/1999/xlink" width="39px" height="39px" xmlns="http://www.w3.org/2000/svg">
  <g transform="matrix(1 0 0 1 1106 -706 )">
    <path d="M -1086.5 706  C -1075.58 706  -1067 714.58  -1067 725.5  C -1067 736.42  -1075.58 745  -1086.5 745  C -1097.42 745  -1106 736.42  -1106 725.5  C -1106 714.58  -1097.42 706  -1086.5 706  Z " fill-rule="nonzero" fill="#ffffff" stroke="none" />
    <path d="M -1086.5 706.5  C -1075.86 706.5  -1067.5 714.86  -1067.5 725.5  C -1067.5 736.14  -1075.86 744.5  -1086.5 744.5  C -1097.14 744.5  -1105.5 736.14  -1105.5 725.5  C -1105.5 714.86  -1097.14 706.5  -1086.5 706.5  Z " stroke-width="1" stroke="#797979" fill="none" />
  </g>
</svg>