<?xml version="1.0" encoding="utf-8"?>
<svg version="1.1" xmlns:xlink="http://www.w3.org/1999/xlink" width="40px" height="40px" xmlns="http://www.w3.org/2000/svg">
  <g transform="matrix(1 0 0 1 1120 -1447 )">
    <path d="M -1100 1447  C -1088.8 1447  -1080 1455.8  -1080 1467  C -1080 1478.2  -1088.8 1487  -1100 1487  C -1111.2 1487  -1120 1478.2  -1120 1467  C -1120 1455.8  -1111.2 1447  -1100 1447  Z " fill-rule="nonzero" fill="#ffffff" stroke="none" />
    <path d="M -1100 1447.5  C -1089.08 1447.5  -1080.5 1456.08  -1080.5 1467  C -1080.5 1477.92  -1089.08 1486.5  -1100 1486.5  C -1110.92 1486.5  -1119.5 1477.92  -1119.5 1467  C -1119.5 1456.08  -1110.92 1447.5  -1100 1447.5  Z " stroke-width="1" stroke="#797979" fill="none" />
  </g>
</svg>