<?xml version="1.0" encoding="utf-8"?>
<svg version="1.1" xmlns:xlink="http://www.w3.org/1999/xlink" width="22px" height="25px" xmlns="http://www.w3.org/2000/svg">
  <g transform="matrix(1 0 0 1 -905 -130 )">
    <path d="M 21.602102109009007 13  L 0.38408409099099095 13  L 0.38408409099099095 12  L 21.602102109009007 12  L 21.602102109009007 13  Z M 20.275975962162164 8.800002851780352  L 20.275975982882883 2.4851165368940364  C 20.275975982882883 1.9041469959244957  19.88034836216216 1.432635476190476  19.39189189189189 1.432635476190476  L 14.529429422522522 1.4326355008580012  L 14.529429422522522 0.38015444015444017  L 19.39189189189189 0.38015444015444017  C 20.368362755855856 0.38015444015444017  21.160060053153153 1.3226512226512226  21.160060053153153 2.4851165368940364  L 21.160060053153153 8.800002851780352  L 20.275975962162164 8.800002851780352  Z M 2.5942942873873878 1.4326355008580012  C 2.105837837837838 1.4326355008580012  1.7102102171171172 1.9036207636207634  1.7102102171171172 2.4851165368940364  L 1.7102102171171172 8.800002851780352  L 0.8261261261261261 8.800002851780352  L 0.8261261261261261 2.4851165368940364  C 0.8261261261261261 1.3226512226512226  1.6178234234234234 0.38015444015444017  2.594294287387387 0.38015444015444017  L 7.456756756756757 0.38015444015444017  L 7.456756756756757 1.4326355008580007  L 2.5942942873873878 1.4326355008580012  Z M 1.7102102171171167 16.167370227370228  L 1.7102102171171172 22.482256542256547  C 1.7102102171171172 23.063752315529815  2.105837837837838 23.534737602960103  2.5942943081081085 23.534737602960103  L 7.4567567774774774 23.534737602960103  L 7.4567567774774774 24.59879594701844  L 2.5942942873873878 24.587218638996138  C 1.6178234234234241 24.587218638996138  0.8261261261261263 23.644721856499356  0.8261261261261263 22.482256542256536  L 0.8261261261261261 16.167370227370228  L 1.7102102171171167 16.167370227370228  Z M 19.39189189189189 23.534737602960103  C 19.880348341441444 23.534737602960103  20.275975982882883 23.063752315529815  20.275975982882883 22.482256542256547  L 20.275975982882883 16.167370227370228  L 21.160060073873872 16.167370227370228  L 21.160060073873872 22.482256542256547  C 21.160060073873872 23.644721856499356  20.418313534234233 24.62668667846418  19.441842649549546 24.62668667846418  L 14.529429422522522 24.615109395109393  L 14.529429422522522 23.534737602960103  L 19.39189189189189 23.534737602960103  Z " fill-rule="nonzero" fill="#ffffff" stroke="none" transform="matrix(1 0 0 1 905 130 )" />
  </g>
</svg>