<?xml version="1.0" encoding="utf-8"?>
<svg version="1.1" xmlns:xlink="http://www.w3.org/1999/xlink" width="44px" height="50px" xmlns="http://www.w3.org/2000/svg">
  <defs>
    <filter x="1122px" y="224px" width="44px" height="50px" filterUnits="userSpaceOnUse" id="filter203">
      <feOffset dx="1" dy="1" in="SourceAlpha" result="shadowOffsetInner" />
      <feGaussianBlur stdDeviation="2.5" in="shadowOffsetInner" result="shadowGaussian" />
      <feComposite in2="shadowGaussian" operator="atop" in="SourceAlpha" result="shadowComposite" />
      <feColorMatrix type="matrix" values="0 0 0 0 0  0 0 0 0 0  0 0 0 0 0  0 0 0 0.6980392156862745 0  " in="shadowComposite" />
    </filter>
    <g id="widget204">
      <path d="M 1143 267.1134842339853  C 1136.4 257.45445183629863  1126.5 251.65903239768664  1126.5 242  C 1126.5 236.9857142857143  1129.8 228.5  1143 228.5  C 1156.2 228.5  1159.5 236.9857142857143  1159.5 242  C 1159.5 251.65903239768664  1149.6 257.45445183629863  1143 267.1134842339853  Z " fill-rule="nonzero" fill="#f59a23" stroke="none" fill-opacity="0.9254901960784314" />
      <path d="M 1143 268  C 1136.2 258  1126 252  1126 242  C 1126 236.8  1129.4 228  1143 228  C 1156.6 228  1160 236.8  1160 242  C 1160 252  1149.8 258  1143 268  Z M 1143 266.22696846797055  C 1149.4 256.90890367259726  1159 251.3180647953733  1159 242  C 1159 237.17142857142858  1155.8 229  1143 229  C 1130.2 229  1127 237.17142857142858  1127 242  C 1127 251.3180647953733  1136.6 256.90890367259726  1143 266.22696846797055  Z " fill-rule="nonzero" fill="#ffffff" stroke="none" />
    </g>
  </defs>
  <g transform="matrix(1 0 0 1 -1122 -224 )">
    <use xlink:href="#widget204" filter="url(#filter203)" />
    <use xlink:href="#widget204" />
  </g>
</svg>