<?xml version="1.0" encoding="utf-8"?>
<svg version="1.1" xmlns:xlink="http://www.w3.org/1999/xlink" width="40px" height="50px" xmlns="http://www.w3.org/2000/svg">
  <defs>
    <mask fill="white" id="clip205">
      <path d="M 30 14  C 30 24  21 30  15 40  C 9 30  0 24  0 14  C 0 11.777743991950615  0.5479018230744259 8.898005796211805  2.112004745434433 6.328603916952943  C 3.350055932100986 4.2948176486941065  5.224794447952036 2.4554684860706857  7.968463653204253 1.2905260401967098  C 9.869431084478265 0.48338877865080576  12.187528098610983 0  15 0  C 27 0  30 8.799999999999955  30 14  Z " fill-rule="evenodd" />
    </mask>
    <filter x="1909px" y="963px" width="40px" height="50px" filterUnits="userSpaceOnUse" id="filter206">
      <feOffset dx="1" dy="1" in="SourceAlpha" result="shadowOffsetInner" />
      <feGaussianBlur stdDeviation="2.5" in="shadowOffsetInner" result="shadowGaussian" />
      <feComposite in2="shadowGaussian" operator="atop" in="SourceAlpha" result="shadowComposite" />
      <feColorMatrix type="matrix" values="0 0 0 0 0  0 0 0 0 0  0 0 0 0 0  0 0 0 0.6980392156862745 0  " in="shadowComposite" />
    </filter>
    <g id="widget207">
      <path d="M 30 14  C 30 24  21 30  15 40  C 9 30  0 24  0 14  C 0 11.777743991950615  0.5479018230744259 8.898005796211805  2.112004745434433 6.328603916952943  C 3.350055932100986 4.2948176486941065  5.224794447952036 2.4554684860706857  7.968463653204253 1.2905260401967098  C 9.869431084478265 0.48338877865080576  12.187528098610983 0  15 0  C 27 0  30 8.799999999999955  30 14  Z " fill-rule="nonzero" fill="#009dd9" stroke="none" transform="matrix(1 0 0 1 1913 967 )" />
      <path d="M 30 14  C 30 24  21 30  15 40  C 9 30  0 24  0 14  C 0 11.777743991950615  0.5479018230744259 8.898005796211805  2.112004745434433 6.328603916952943  C 3.350055932100986 4.2948176486941065  5.224794447952036 2.4554684860706857  7.968463653204253 1.2905260401967098  C 9.869431084478265 0.48338877865080576  12.187528098610983 0  15 0  C 27 0  30 8.799999999999955  30 14  Z " stroke-width="2" stroke="#ffffff" fill="none" transform="matrix(1 0 0 1 1913 967 )" mask="url(#clip205)" />
    </g>
  </defs>
  <g transform="matrix(1 0 0 1 -1909 -963 )">
    <use xlink:href="#widget207" filter="url(#filter206)" />
    <use xlink:href="#widget207" />
  </g>
</svg>