<?xml version="1.0" encoding="utf-8"?>
<svg version="1.1" xmlns:xlink="http://www.w3.org/1999/xlink" width="40px" height="50px" xmlns="http://www.w3.org/2000/svg">
  <defs>
    <mask fill="white" id="clip173">
      <path d="M 30 14  C 30 24  21 30  15 40  C 9.275591757829716 30.459319596382784  0.8204460387403287 24.55962249532422  0.055800256117663594 15.353417087900539  C 0.018987704246001158 14.910200213100666  0 14.459319596382784  0 14  C 0 8.799999999999955  3 0  15 0  C 27 0  30 8.799999999999955  30 14  Z " fill-rule="evenodd" />
    </mask>
    <filter x="1131px" y="1040px" width="40px" height="50px" filterUnits="userSpaceOnUse" id="filter174">
      <feOffset dx="1" dy="1" in="SourceAlpha" result="shadowOffsetInner" />
      <feGaussianBlur stdDeviation="2.5" in="shadowOffsetInner" result="shadowGaussian" />
      <feComposite in2="shadowGaussian" operator="atop" in="SourceAlpha" result="shadowComposite" />
      <feColorMatrix type="matrix" values="0 0 0 0 0  0 0 0 0 0  0 0 0 0 0  0 0 0 0.6980392156862745 0  " in="shadowComposite" />
    </filter>
    <g id="widget175">
      <path d="M 30 14  C 30 24  21 30  15 40  C 9.275591757829716 30.459319596382784  0.8204460387403287 24.55962249532422  0.055800256117663594 15.353417087900539  C 0.018987704246001158 14.910200213100666  0 14.459319596382784  0 14  C 0 8.799999999999955  3 0  15 0  C 27 0  30 8.799999999999955  30 14  Z " fill-rule="nonzero" fill="#f59a23" stroke="none" fill-opacity="0.9254901960784314" transform="matrix(1 0 0 1 1135 1044 )" />
      <path d="M 30 14  C 30 24  21 30  15 40  C 9.275591757829716 30.459319596382784  0.8204460387403287 24.55962249532422  0.055800256117663594 15.353417087900539  C 0.018987704246001158 14.910200213100666  0 14.459319596382784  0 14  C 0 8.799999999999955  3 0  15 0  C 27 0  30 8.799999999999955  30 14  Z " stroke-width="2" stroke="#ffffff" fill="none" transform="matrix(1 0 0 1 1135 1044 )" mask="url(#clip173)" />
    </g>
  </defs>
  <g transform="matrix(1 0 0 1 -1131 -1040 )">
    <use xlink:href="#widget175" filter="url(#filter174)" />
    <use xlink:href="#widget175" />
  </g>
</svg>