<?xml version="1.0" encoding="utf-8"?>
<svg version="1.1" xmlns:xlink="http://www.w3.org/1999/xlink" width="142px" height="99px" xmlns="http://www.w3.org/2000/svg">
  <g transform="matrix(1 0 0 1 -1262 -1700 )">
    <path d="M 1262 1700  L 1404 1700  L 1404 1799  L 1262 1799  L 1262 1700  " fill-rule="nonzero" fill="#cccccc" stroke="none" />
    <path d="M 1269 1707  L 1397 1707  L 1397 1792  L 1269 1792  L 1269 1707  " fill-rule="nonzero" fill="#ffffff" stroke="none" />
    <path d="M 1343.2649999999999 1729.6999999999998  C 1339.107 1729.6999999999998  1335.84 1726.4329999999998  1335.84 1722.2749999999999  C 1335.84 1718.117  1339.107 1714.85  1343.2649999999999 1714.85  C 1347.4229999999998 1714.85  1350.6899999999998 1718.117  1350.6899999999998 1722.2749999999999  C 1350.6899999999998 1726.4329999999998  1347.4229999999998 1729.6999999999998  1343.2649999999999 1729.6999999999998  " fill-rule="nonzero" fill="#cccccc" stroke="none" />
    <path d="M 1272 1790  L 1272 1746  L 1302.75 1726  L 1345.8 1756.5352112676055  L 1370.4 1738  L 1395 1756.5352112676055  L 1395 1790  L 1272 1790  " fill-rule="nonzero" fill="#169bd5" stroke="none" />
  </g>
</svg>