<svg t="1733827062661" class="icon" viewBox="0 0 1024 1024" version="1.1" xmlns="http://www.w3.org/2000/svg" p-id="5768" width="200" height="200"><path d="M556.7 920.2L164 536.7c-11.3-11.1-11.6-29.2-0.5-40.6l1.8-1.8c11.1-11.3 29.2-11.6 40.6-0.5l392.6 383.5c11.3 11.1 11.6 29.2 0.5 40.6l-1.8 1.8c-11 11.4-29.2 11.6-40.5 0.5z" fill="#A1A0A5" p-id="5769"></path><path d="M592.7 148.4L206.3 538.2c-11.2 11.3-29.3 11.3-40.6 0.2l-1.8-1.8c-11.3-11.2-11.3-29.3-0.2-40.6l386.5-389.8c11.2-11.3 29.3-11.3 40.6-0.2l1.8 1.8c11.2 11.2 11.3 29.3 0.1 40.6z" fill="#A1A0A5" p-id="5770"></path></svg>