<svg t="1727262268456" class="icon" viewBox="0 0 1024 1024" version="1.1" xmlns="http://www.w3.org/2000/svg" p-id="5346" width="200" height="200"><path d="M472.615385 905.846154a433.230769 433.230769 0 1 0 0-866.461539 433.230769 433.230769 0 0 0 0 866.461539z m0-78.769231a354.461538 354.461538 0 1 1 0-708.923077 354.461538 354.461538 0 0 1 0 708.923077z" fill="#bfbfbf" p-id="5347"></path><path d="M715.697231 755.081846a39.384615 39.384615 0 0 1 55.689846 0l167.069538 167.069539a39.384615 39.384615 0 1 1-55.689846 55.689846l-167.069538-167.069539a39.384615 39.384615 0 0 1 0-55.689846z m55.689846 55.689846a39.384615 39.384615 0 0 0 0-55.689846l167.069538 167.069539a39.384615 39.384615 0 1 0-55.689846 55.689846l-167.069538-167.069539a39.384615 39.384615 0 0 0 55.689846 0z" fill="#bfbfbf" p-id="5348"></path></svg>