<?xml version="1.0" encoding="utf-8"?>
<svg version="1.1" xmlns:xlink="http://www.w3.org/1999/xlink" width="131px" height="136px" xmlns="http://www.w3.org/2000/svg">
  <g transform="matrix(1 0 0 1 -168 -1158 )">
    <path d="M 233.5 1158  C 270.18 1158  299 1187.92  299 1226  C 299 1264.08  270.18 1294  233.5 1294  C 196.82 1294  168 1264.08  168 1226  C 168 1187.92  196.82 1158  233.5 1158  Z " fill-rule="nonzero" fill="#ffffff" stroke="none" />
    <path d="M 233.5 1158.5  C 269.9 1158.5  298.5 1188.2  298.5 1226  C 298.5 1263.8  269.9 1293.5  233.5 1293.5  C 197.1 1293.5  168.5 1263.8  168.5 1226  C 168.5 1188.2  197.1 1158.5  233.5 1158.5  Z " stroke-width="1" stroke="#797979" fill="none" />
  </g>
</svg>