<svg t="1753869011599" class="icon" viewBox="0 0 1024 1024" version="1.1" xmlns="http://www.w3.org/2000/svg" p-id="4482" width="200" height="200"><path d="M252.183068 678.416194c2.666736 3.865028 6.975878 5.940292 11.352559 5.940292 2.706645 0 5.439896-0.795109 7.824199-2.438539 6.274914-4.334725 7.837502-12.927427 3.500731-19.203364-33.787524-48.883337-52.034097-106.107643-52.774971-165.43996-0.013303-2.599198-0.026606-147.08594-0.026606-148.385539 0-7.615445-6.167466-13.790074-13.790074-13.790074-7.621585 0-13.789051 6.17463-13.789051 13.790074 0 1.305739 0.013303 147.3213 0.026606 148.654668C195.315896 562.459229 215.25911 624.982214 252.183068 678.416194zM856.713484 348.889085c0-7.615445-6.166443-13.790074-13.789051-13.790074-7.622608 0-13.790074 6.17463-13.790074 13.790074 0 1.743714-0.014326 146.412604-0.040932 149.611459-2.706645 162.748664-138.850371 295.176766-303.504432 295.176766-61.540611 0-120.80539-18.113543-171.372066-52.398394-6.329149-4.269233-14.879895-2.625804-19.162432 3.689019-4.26821 6.30152-2.544963 14.867616 3.75758 19.149129 51.360761 34.798551 104.21555 54.107315 173.162852 56.639998l0 111.823831L365.611443 932.580894c-7.622608 0-13.790074 6.167466-13.790074 13.791098 0 7.609305 6.166443 13.789051 13.790074 13.789051l319.972499 0c7.621585 0 13.790074-6.179746 13.790074-13.789051 0-7.622608-6.167466-13.791098-13.790074-13.791098L539.555078 932.580894 539.555078 820.917722c179.264826-7.190773 314.332035-148.82863 317.200362-321.980225C856.782046 497.011634 856.713484 350.363669 856.713484 348.889085zM677.449681 353.413122l0 151.684678c0 83.956134-63.87068 144.905274-151.859663 144.905274-31.847336 0-62.483076-9.413394-88.621387-27.203572-6.274914-4.281513-14.866592-2.638083-19.149129 3.637854-4.295839 6.30152-2.665713 14.865569 3.635807 19.161409 30.717605 20.914332 66.74003 31.984459 104.134709 31.984459 103.973026 0 179.439812-72.545246 179.439812-172.4844l0-151.684678c0-7.615445-6.167466-13.790074-13.790074-13.790074S677.449681 345.7987 677.449681 353.413122zM360.277972 574.045101c0.189312 0 0.363274 0 0.538259-0.00614 7.609305-0.295735 13.547551-6.699586 13.250792-14.307867-0.740874-19.518542-0.497327-32.716122-0.2415-46.681182 0.12075-6.982018 0.255827-13.9712 0.255827-21.741163L374.081349 243.097644c0-86.47449 65.136509-151.684678 151.508669-151.684678 60.248176 0 115.810632 34.824133 141.544737 88.716554 3.285836 6.861268 11.513218 9.769504 18.381649 6.497994 6.881734-3.279696 9.788947-11.520381 6.503111-18.388812-30.28577-63.419402-95.623871-104.397698-166.43052-104.397698-100.417037 0-179.087794 78.737272-179.087794 179.257663l0 248.211105c0 7.594979-0.121773 14.402011-0.255827 21.22951-0.255827 13.735839-0.511653 27.943422 0.26913 48.243771C346.797959 568.215326 352.912214 574.045101 360.277972 574.045101zM813.554522 126.929878c-5.723352-5.016247-14.423501-4.444219-19.460214 1.293459L170.645007 840.754512c-5.009084 5.735631-4.429893 14.44806 1.306762 19.459191 2.612501 2.288113 5.844102 3.405563 9.076726 3.405563 3.837398 0 7.649214-1.589195 10.382465-4.699022l623.450325-712.531176C819.870368 140.65139 819.291177 131.946125 813.554522 126.929878z" p-id="4483" fill="#515151"></path></svg>