<?xml version="1.0" encoding="utf-8"?>
<svg version="1.1" xmlns:xlink="http://www.w3.org/1999/xlink" width="19px" height="19px" xmlns="http://www.w3.org/2000/svg">
  <g transform="matrix(1 0 0 1 -145 -1353 )">
    <path d="M 154.5 1353  C 159.82 1353  164 1357.18  164 1362.5  C 164 1367.82  159.82 1372  154.5 1372  C 149.18 1372  145 1367.82  145 1362.5  C 145 1357.18  149.18 1353  154.5 1353  Z " fill-rule="nonzero" fill="#ffffff" stroke="none" />
    <path d="M 154.5 1353.5  C 159.54 1353.5  163.5 1357.46  163.5 1362.5  C 163.5 1367.54  159.54 1371.5  154.5 1371.5  C 149.46 1371.5  145.5 1367.54  145.5 1362.5  C 145.5 1357.46  149.46 1353.5  154.5 1353.5  Z " stroke-width="1" stroke="#797979" fill="none" />
  </g>
</svg>