<svg t="1725432035428" class="icon" viewBox="0 0 1024 1024" version="1.1" xmlns="http://www.w3.org/2000/svg" p-id="4231" width="200" height="200"><path d="M514.56 256c141.2096 0 256 114.7904 256 256s-114.7904 256-256 256-256-114.7904-256-256S373.3504 256 514.56 256M514.56 204.8c-169.6768 0-307.2 137.5232-307.2 307.2 0 169.6768 137.5232 307.2 307.2 307.2s307.2-137.5232 307.2-307.2C821.76 342.3232 684.2368 204.8 514.56 204.8L514.56 204.8z" fill="#B3B3B3" p-id="4232"></path><path d="M707.1744 384c-8.8064-7.9872-22.4256-7.3728-30.4128 1.4336L486.912 594.1248l-136.3968-117.76c-9.0112-7.7824-22.6304-6.7584-30.4128 2.2528-7.7824 9.0112-6.7584 22.6304 2.2528 30.4128l152.3712 131.4816c1.2288 1.1264 2.7648 1.7408 4.1984 2.4576 0.8192 0.4096 1.536 1.024 2.3552 1.3312 2.4576 0.9216 5.0176 1.3312 7.4752 1.3312 2.9696 0 5.9392-0.6144 8.704-1.8432 0.9216-0.4096 1.6384-1.2288 2.4576-1.8432 1.6384-1.024 3.3792-1.9456 4.7104-3.3792L708.608 414.5152C716.5952 405.7088 715.9808 392.0896 707.1744 384" fill="#B3B3B3" p-id="4233"></path></svg>