<?xml version="1.0" encoding="utf-8"?>
<svg version="1.1" xmlns:xlink="http://www.w3.org/1999/xlink" width="59px" height="59px" xmlns="http://www.w3.org/2000/svg">
  <g transform="matrix(1 0 0 1 -117 -280 )">
    <path d="M 146.5 280  C 163.02 280  176 292.98  176 309.5  C 176 326.02  163.02 339  146.5 339  C 129.98 339  117 326.02  117 309.5  C 117 292.98  129.98 280  146.5 280  Z " fill-rule="nonzero" fill="#d7d7d7" stroke="none" />
    <path d="M 146.5 280.5  C 162.74 280.5  175.5 293.26  175.5 309.5  C 175.5 325.74  162.74 338.5  146.5 338.5  C 130.26 338.5  117.5 325.74  117.5 309.5  C 117.5 293.26  130.26 280.5  146.5 280.5  Z " stroke-width="1" stroke="#797979" fill="none" />
  </g>
</svg>