<svg t="1744078595438" class="icon" viewBox="0 0 1024 1024" version="1.1" xmlns="http://www.w3.org/2000/svg" p-id="15552" width="200" height="200"><path d="M584.9 574.7c17.3 0 31.2-14.1 31.2-31.4 0-17.3-14-31.4-31.2-31.4-17.3 0-31.2 14.1-31.2 31.4-0.1 17.4 13.9 31.4 31.2 31.4z m-216.6 55.5c-0.1 2.5-0.2 5-0.2 7.5 0 79.3 64.3 143.9 143.4 143.9S655 717 655 637.7c0-2.5 0-5-0.2-7.5H368.3z m70.5-55.5c17.3 0 31.2-14.1 31.2-31.4 0-17.3-14-31.4-31.2-31.4-17.3 0-31.2 14.1-31.2 31.4-0.1 17.4 13.9 31.4 31.2 31.4z" p-id="15553" fill="#bfbfbf"></path><path d="M511.9 63.3C264.8 63.3 64.4 264.2 64.4 512c0 154.7 78 291.1 196.8 371.7C320.5 924 390 950.3 465 958.2l103.1-1.2c71.3-9 137.4-34.7 194.2-73.2 118.7-80.6 196.8-217 196.8-371.7 0.2-247.9-200.1-448.8-447.2-448.8zM762.4 868c-70.6 51-157.1 81.2-250.6 81.2s-179.9-30-250.6-81.2V637.5c0-138.7 112.1-251.2 250.6-251.2s250.6 112.5 250.6 251.2V868z" p-id="15554" fill="#bfbfbf"></path></svg>