<svg t="1740379556510" class="icon" viewBox="0 0 1024 1024" version="1.1" xmlns="http://www.w3.org/2000/svg" p-id="8657" width="200" height="200"><path d="M0 0m512 0l0 0q512 0 512 512l0 0q0 512-512 512l0 0q-512 0-512-512l0 0q0-512 512-512Z" fill="#000000" p-id="8658"></path><path d="M320.170667 631.864889a18.204444 18.204444 0 0 1 13.084444-5.518222h453.973333c8.078222 0 12.344889 10.24 6.542223 16.213333l-89.543111 91.477333a18.204444 18.204444 0 0 1-13.084445 5.518223H236.714667c-8.078222 0-12.344889-10.24-6.542223-16.156445l89.884445-91.534222z" fill="#C931F7" p-id="8659"></path><path d="M320.170667 289.962667A18.204444 18.204444 0 0 1 333.255111 284.444444h453.973333c8.078222 0 12.344889 10.24 6.542223 16.156445l-89.543111 91.534222a18.204444 18.204444 0 0 1-13.084445 5.518222H236.714667c-8.078222 0-12.344889-10.24-6.542223-16.213333l89.884445-91.477333z" fill="#1CE2AF" p-id="8660"></path><path d="M703.829333 459.946667a18.204444 18.204444 0 0 0-13.084444-5.518223h-453.973333c-8.078222 0-12.344889 10.24-6.542223 16.156445L319.772444 562.062222a18.204444 18.204444 0 0 0 13.084445 5.518222h453.973333c8.078222 0 12.344889-10.24 6.542222-16.156444l-89.543111-91.477333z" fill="#6697CE" p-id="8661"></path></svg>