<svg t="1704793052818" class="icon" viewBox="0 0 1024 1024" version="1.1" xmlns="http://www.w3.org/2000/svg" p-id="1533" width="200" height="200"><path d="M64 981.333333a21.333333 21.333333 0 0 1-10.973333-39.626666c65.813333-39.486667 110.1-75.9 140.74-116.066667C97.473333 744.9 42.666667 631.68 42.666667 512a391.093333 391.093333 0 0 1 37.213333-166.806667c23.773333-50.853333 57.76-96.486667 101.02-135.626666C224 170.566667 274.173333 139.96 330 118.593333 387.666667 96.526667 448.906667 85.333333 512 85.333333s124.333333 11.193333 182 33.26c55.82 21.366667 106 52 149.093333 90.973334 43.26 39.14 77.246667 84.773333 101.02 135.626666a392.46 392.46 0 0 1 0 333.613334c-23.773333 50.853333-57.76 96.486667-101.02 135.626666-43.113333 39-93.273333 69.606667-149.093333 90.973334-57.666667 22.066667-118.906667 33.26-182 33.26a511.086667 511.086667 0 0 1-150.833333-22.513334c-34.453333 19.66-74.666667 35.113333-119.68 46C188.666667 974.873333 128.953333 981.333333 64 981.333333zM512 128c-235.266667 0-426.666667 172.26-426.666667 384 0 112.793333 54.833333 219.46 150.44 292.666667a21.333333 21.333333 0 0 1 4.833334 28.666666c-24.033333 36.413333-56.16 69.18-100.58 102 83.373333-7.64 154.166667-28.213333 207.453333-60.606666a21.333333 21.333333 0 0 1 17.76-2A467.673333 467.673333 0 0 0 512 896c235.266667 0 426.666667-172.26 426.666667-384s-191.4-384-426.666667-384z" fill="#5C5C66" p-id="1534"></path></svg>