<svg t="1708846820115" class="icon" viewBox="0 0 1024 1024" version="1.1" xmlns="http://www.w3.org/2000/svg" p-id="18318" width="32" height="32"><path d="M170.666667 554.666667c-10.666667 0-21.333333-4.266667-29.866667-12.8-17.066667-17.066667-17.066667-42.666667 0-59.733334l341.333333-341.333333c17.066667-17.066667 42.666667-17.066667 59.733334 0s17.066667 42.666667 0 59.733333l-341.333334 341.333334c-8.533333 8.533333-19.2 12.8-29.866666 12.8z" p-id="18319" fill="#8a8a8a"></path><path d="M853.333333 554.666667c-10.666667 0-21.333333-4.266667-29.866666-12.8l-341.333334-341.333334c-17.066667-17.066667-17.066667-42.666667 0-59.733333s42.666667-17.066667 59.733334 0l341.333333 341.333333c17.066667 17.066667 17.066667 42.666667 0 59.733334-8.533333 8.533333-19.2 12.8-29.866667 12.8z" p-id="18320" fill="#8a8a8a"></path><path d="M512 896c-23.466667 0-42.666667-19.2-42.666667-42.666667V170.666667c0-23.466667 19.2-36.266667 42.666667-36.266667s42.666667 12.8 42.666667 36.266667v682.666666c0 23.466667-19.2 42.666667-42.666667 42.666667z" p-id="18321" fill="#8a8a8a"></path></svg>